<svg width="443" height="100" viewBox="0 0 443 100" fill="none" xmlns="http://www.w3.org/2000/svg">
<circle cx="28" cy="61" r="17" fill="#050D21"/>
<circle cx="43" cy="30" r="14" fill="#FFD700"/>
<circle cx="68" cy="64" r="20" fill="#1A67F8"/>
<path d="M109.008 70.48C107.344 70.48 105.904 69.968 104.688 68.944C103.472 67.888 102.864 66.272 102.864 64.096C102.864 62.208 103.344 60.736 104.304 59.68C105.264 58.624 106.576 57.888 108.24 57.472C109.936 57.056 111.888 56.848 114.096 56.848H115.824V56.368C115.824 55.824 115.712 55.28 115.488 54.736C115.264 54.192 114.896 53.744 114.384 53.392C113.872 53.008 113.152 52.816 112.224 52.816C110.912 52.816 109.936 52.944 109.296 53.2C108.656 53.456 108.16 53.728 107.808 54.016C107.456 54.272 107.056 54.4 106.608 54.4C105.808 54.4 105.184 54 104.736 53.2C104.32 52.4 104.112 51.568 104.112 50.704C104.112 49.936 104.544 49.264 105.408 48.688C106.304 48.112 107.376 47.664 108.624 47.344C109.904 47.024 111.136 46.864 112.32 46.864C114.944 46.864 117.056 47.312 118.656 48.208C120.256 49.104 121.424 50.272 122.16 51.712C122.896 53.12 123.264 54.64 123.264 56.272V67.696C123.264 68.336 122.912 68.88 122.208 69.328C121.536 69.776 120.672 70 119.616 70C118.688 70 117.904 69.776 117.264 69.328C116.624 68.88 116.304 68.336 116.304 67.696V66.64C115.44 67.632 114.432 68.528 113.28 69.328C112.128 70.096 110.704 70.48 109.008 70.48ZM112.224 65.056C112.736 65.056 113.264 64.864 113.808 64.48C114.352 64.064 114.816 63.52 115.2 62.848C115.616 62.176 115.824 61.44 115.824 60.64V60.448H115.632C114.736 60.448 113.872 60.512 113.04 60.64C112.24 60.736 111.584 60.976 111.072 61.36C110.592 61.712 110.352 62.272 110.352 63.04C110.352 63.744 110.528 64.256 110.88 64.576C111.232 64.896 111.68 65.056 112.224 65.056ZM137.49 70.48C134.962 70.48 132.882 70.032 131.25 69.136C129.65 68.24 128.466 67.024 127.698 65.488C126.962 63.952 126.594 62.224 126.594 60.304V57.04C126.594 55.12 126.962 53.392 127.698 51.856C128.466 50.32 129.65 49.104 131.25 48.208C132.85 47.312 134.898 46.864 137.394 46.864C138.962 46.864 140.354 47.056 141.57 47.44C142.786 47.792 143.746 48.272 144.45 48.88C145.154 49.488 145.506 50.144 145.506 50.848C145.506 51.296 145.378 51.808 145.122 52.384C144.898 52.96 144.562 53.456 144.114 53.872C143.698 54.288 143.202 54.496 142.626 54.496C142.242 54.496 141.858 54.4 141.474 54.208C141.122 54.016 140.674 53.824 140.13 53.632C139.586 53.44 138.882 53.344 138.018 53.344C136.578 53.344 135.554 53.664 134.946 54.304C134.338 54.944 134.034 55.856 134.034 57.04V60.304C134.034 61.488 134.338 62.4 134.946 63.04C135.554 63.68 136.594 64 138.066 64C138.93 64 139.618 63.888 140.13 63.664C140.642 63.44 141.074 63.232 141.426 63.04C141.81 62.816 142.21 62.704 142.626 62.704C143.298 62.704 143.874 62.896 144.354 63.28C144.834 63.664 145.186 64.144 145.41 64.72C145.666 65.264 145.794 65.776 145.794 66.256C145.794 66.96 145.426 67.648 144.69 68.32C143.954 68.96 142.962 69.488 141.714 69.904C140.466 70.288 139.058 70.48 137.49 70.48ZM158.537 70.48C156.009 70.48 153.929 70.032 152.297 69.136C150.697 68.24 149.513 67.024 148.745 65.488C148.009 63.952 147.641 62.224 147.641 60.304V57.04C147.641 55.12 148.009 53.392 148.745 51.856C149.513 50.32 150.697 49.104 152.297 48.208C153.897 47.312 155.945 46.864 158.441 46.864C160.009 46.864 161.401 47.056 162.617 47.44C163.833 47.792 164.793 48.272 165.497 48.88C166.201 49.488 166.553 50.144 166.553 50.848C166.553 51.296 166.425 51.808 166.169 52.384C165.945 52.96 165.609 53.456 165.161 53.872C164.745 54.288 164.249 54.496 163.673 54.496C163.289 54.496 162.905 54.4 162.521 54.208C162.169 54.016 161.721 53.824 161.177 53.632C160.633 53.44 159.929 53.344 159.065 53.344C157.625 53.344 156.601 53.664 155.993 54.304C155.385 54.944 155.081 55.856 155.081 57.04V60.304C155.081 61.488 155.385 62.4 155.993 63.04C156.601 63.68 157.641 64 159.113 64C159.977 64 160.665 63.888 161.177 63.664C161.689 63.44 162.121 63.232 162.473 63.04C162.857 62.816 163.257 62.704 163.673 62.704C164.345 62.704 164.921 62.896 165.401 63.28C165.881 63.664 166.233 64.144 166.457 64.72C166.713 65.264 166.841 65.776 166.841 66.256C166.841 66.96 166.473 67.648 165.737 68.32C165.001 68.96 164.009 69.488 162.761 69.904C161.513 70.288 160.105 70.48 158.537 70.48ZM180.784 70.48C178.416 70.48 176.32 70.064 174.496 69.232C172.672 68.368 171.232 67.168 170.176 65.632C169.152 64.096 168.64 62.32 168.64 60.304V56.8C168.64 55.008 169.136 53.36 170.128 51.856C171.12 50.352 172.448 49.152 174.112 48.256C175.776 47.328 177.632 46.864 179.68 46.864C181.536 46.864 183.232 47.248 184.768 48.016C186.336 48.784 187.6 49.856 188.56 51.232C189.52 52.576 190 54.16 190 55.984C190 57.424 189.76 58.464 189.28 59.104C188.832 59.712 188.24 60.096 187.504 60.256C186.8 60.384 186.08 60.448 185.344 60.448H176.08V60.736C176.08 61.92 176.528 62.88 177.424 63.616C178.32 64.32 179.504 64.672 180.976 64.672C181.968 64.672 182.816 64.528 183.52 64.24C184.224 63.92 184.848 63.616 185.392 63.328C185.936 63.04 186.464 62.896 186.976 62.896C187.552 62.896 188.048 63.088 188.464 63.472C188.88 63.856 189.184 64.304 189.376 64.816C189.6 65.328 189.712 65.776 189.712 66.16C189.712 66.768 189.344 67.408 188.608 68.08C187.872 68.752 186.832 69.328 185.488 69.808C184.176 70.256 182.608 70.48 180.784 70.48ZM176.08 56.272H182.032C182.384 56.272 182.64 56.192 182.8 56.032C182.96 55.872 183.04 55.568 183.04 55.12C183.04 54.48 182.864 53.952 182.512 53.536C182.192 53.088 181.76 52.768 181.216 52.576C180.704 52.352 180.144 52.24 179.536 52.24C178.96 52.24 178.4 52.352 177.856 52.576C177.344 52.768 176.912 53.088 176.56 53.536C176.24 53.952 176.08 54.48 176.08 55.12V56.272ZM201.284 70.48C199.62 70.48 198.084 70.272 196.676 69.856C195.3 69.44 194.196 68.896 193.364 68.224C192.564 67.552 192.164 66.832 192.164 66.064C192.164 65.68 192.26 65.232 192.452 64.72C192.676 64.208 192.964 63.76 193.316 63.376C193.7 62.992 194.132 62.8 194.612 62.8C195.124 62.8 195.636 62.992 196.148 63.376C196.66 63.728 197.284 64.08 198.02 64.432C198.788 64.784 199.812 64.96 201.092 64.96C202.372 64.96 203.188 64.784 203.54 64.432C203.892 64.048 204.068 63.696 204.068 63.376C204.068 62.832 203.796 62.416 203.252 62.128C202.708 61.808 202.004 61.552 201.14 61.36C200.308 61.136 199.412 60.896 198.452 60.64C197.492 60.352 196.58 59.968 195.716 59.488C194.884 59.008 194.196 58.352 193.652 57.52C193.108 56.688 192.836 55.6 192.836 54.256C192.836 53.072 193.108 51.92 193.652 50.8C194.228 49.648 195.172 48.704 196.484 47.968C197.796 47.232 199.588 46.864 201.86 46.864C203.268 46.864 204.58 47.008 205.796 47.296C207.044 47.584 208.052 48 208.82 48.544C209.62 49.056 210.02 49.648 210.02 50.32C210.02 50.64 209.908 51.088 209.684 51.664C209.492 52.208 209.188 52.704 208.772 53.152C208.388 53.6 207.908 53.824 207.332 53.824C206.916 53.824 206.452 53.712 205.94 53.488C205.428 53.232 204.852 52.992 204.212 52.768C203.572 52.512 202.82 52.384 201.956 52.384C201.316 52.384 200.788 52.464 200.372 52.624C199.988 52.784 199.7 52.976 199.508 53.2C199.316 53.424 199.22 53.664 199.22 53.92C199.22 54.368 199.492 54.72 200.036 54.976C200.58 55.2 201.284 55.424 202.148 55.648C203.012 55.84 203.924 56.08 204.884 56.368C205.844 56.624 206.756 57.024 207.62 57.568C208.484 58.08 209.188 58.784 209.732 59.68C210.276 60.544 210.548 61.68 210.548 63.088C210.548 65.328 209.748 67.12 208.148 68.464C206.58 69.808 204.292 70.48 201.284 70.48ZM221.862 70.48C220.198 70.48 218.662 70.272 217.254 69.856C215.878 69.44 214.774 68.896 213.942 68.224C213.142 67.552 212.742 66.832 212.742 66.064C212.742 65.68 212.838 65.232 213.03 64.72C213.254 64.208 213.542 63.76 213.894 63.376C214.278 62.992 214.71 62.8 215.19 62.8C215.702 62.8 216.214 62.992 216.726 63.376C217.238 63.728 217.862 64.08 218.598 64.432C219.366 64.784 220.39 64.96 221.67 64.96C222.95 64.96 223.766 64.784 224.118 64.432C224.47 64.048 224.646 63.696 224.646 63.376C224.646 62.832 224.374 62.416 223.83 62.128C223.286 61.808 222.582 61.552 221.718 61.36C220.886 61.136 219.99 60.896 219.03 60.64C218.07 60.352 217.158 59.968 216.294 59.488C215.462 59.008 214.774 58.352 214.23 57.52C213.686 56.688 213.414 55.6 213.414 54.256C213.414 53.072 213.686 51.92 214.23 50.8C214.806 49.648 215.75 48.704 217.062 47.968C218.374 47.232 220.166 46.864 222.438 46.864C223.846 46.864 225.158 47.008 226.374 47.296C227.622 47.584 228.63 48 229.398 48.544C230.198 49.056 230.598 49.648 230.598 50.32C230.598 50.64 230.486 51.088 230.262 51.664C230.07 52.208 229.766 52.704 229.35 53.152C228.966 53.6 228.486 53.824 227.91 53.824C227.494 53.824 227.03 53.712 226.518 53.488C226.006 53.232 225.43 52.992 224.79 52.768C224.15 52.512 223.398 52.384 222.534 52.384C221.894 52.384 221.366 52.464 220.95 52.624C220.566 52.784 220.278 52.976 220.086 53.2C219.894 53.424 219.798 53.664 219.798 53.92C219.798 54.368 220.07 54.72 220.614 54.976C221.158 55.2 221.862 55.424 222.726 55.648C223.59 55.84 224.502 56.08 225.462 56.368C226.422 56.624 227.334 57.024 228.198 57.568C229.062 58.08 229.766 58.784 230.31 59.68C230.854 60.544 231.126 61.68 231.126 63.088C231.126 65.328 230.326 67.12 228.726 68.464C227.158 69.808 224.87 70.48 221.862 70.48ZM238.169 42.736C237.081 42.736 236.153 42.384 235.385 41.68C234.617 40.976 234.233 40.176 234.233 39.28C234.233 38.352 234.617 37.552 235.385 36.88C236.153 36.208 237.081 35.872 238.169 35.872C239.257 35.872 240.169 36.208 240.905 36.88C241.673 37.552 242.057 38.352 242.057 39.28C242.057 40.176 241.673 40.976 240.905 41.68C240.169 42.384 239.257 42.736 238.169 42.736ZM238.169 70C237.081 70 236.185 69.76 235.48 69.28C234.809 68.8 234.473 68.272 234.473 67.696V49.408C234.473 48.736 234.809 48.192 235.48 47.776C236.185 47.36 237.081 47.152 238.169 47.152C239.193 47.152 240.073 47.36 240.809 47.776C241.545 48.192 241.913 48.736 241.913 49.408V67.696C241.913 68.272 241.545 68.8 240.809 69.28C240.073 69.76 239.193 70 238.169 70ZM259.919 70.48C258.383 70.48 256.991 70.096 255.743 69.328C254.527 68.528 253.679 67.632 253.199 66.64V67.696C253.199 68.272 252.879 68.8 252.239 69.28C251.599 69.76 250.815 70 249.887 70C248.831 70 247.951 69.76 247.247 69.28C246.575 68.8 246.239 68.272 246.239 67.696V36.352C246.239 35.68 246.575 35.136 247.247 34.72C247.951 34.304 248.831 34.096 249.887 34.096C250.943 34.096 251.839 34.304 252.575 34.72C253.311 35.136 253.679 35.68 253.679 36.352V50.512C254.191 49.584 254.959 48.752 255.983 48.016C257.039 47.248 258.303 46.864 259.775 46.864C261.343 46.864 262.767 47.328 264.047 48.256C265.327 49.152 266.351 50.368 267.119 51.904C267.887 53.408 268.271 55.088 268.271 56.944V60.304C268.271 62.064 267.887 63.728 267.119 65.296C266.351 66.832 265.327 68.08 264.047 69.04C262.799 70 261.423 70.48 259.919 70.48ZM257.375 64C258.015 64 258.591 63.824 259.103 63.472C259.647 63.12 260.063 62.656 260.351 62.08C260.671 61.504 260.831 60.912 260.831 60.304V56.944C260.831 56.336 260.671 55.76 260.351 55.216C260.063 54.672 259.647 54.224 259.103 53.872C258.591 53.52 257.999 53.344 257.327 53.344C256.751 53.344 256.175 53.488 255.599 53.776C255.055 54.064 254.591 54.48 254.207 55.024C253.855 55.536 253.679 56.176 253.679 56.944V60.928C253.679 61.184 253.839 61.568 254.159 62.08C254.511 62.56 254.959 63.008 255.503 63.424C256.079 63.808 256.703 64 257.375 64ZM275.481 42.736C274.393 42.736 273.465 42.384 272.697 41.68C271.929 40.976 271.545 40.176 271.545 39.28C271.545 38.352 271.929 37.552 272.697 36.88C273.465 36.208 274.393 35.872 275.481 35.872C276.569 35.872 277.481 36.208 278.217 36.88C278.985 37.552 279.369 38.352 279.369 39.28C279.369 40.176 278.985 40.976 278.217 41.68C277.481 42.384 276.569 42.736 275.481 42.736ZM275.481 70C274.393 70 273.497 69.76 272.793 69.28C272.121 68.8 271.785 68.272 271.785 67.696V49.408C271.785 48.736 272.121 48.192 272.793 47.776C273.497 47.36 274.393 47.152 275.481 47.152C276.505 47.152 277.385 47.36 278.121 47.776C278.857 48.192 279.225 48.736 279.225 49.408V67.696C279.225 68.272 278.857 68.8 278.121 69.28C277.385 69.76 276.505 70 275.481 70ZM287.632 70C286.544 70 285.648 69.76 284.944 69.28C284.272 68.8 283.936 68.272 283.936 67.696V36.352C283.936 35.68 284.272 35.136 284.944 34.72C285.648 34.304 286.544 34.096 287.632 34.096C288.656 34.096 289.536 34.304 290.272 34.72C291.008 35.136 291.376 35.68 291.376 36.352V67.696C291.376 68.272 291.008 68.8 290.272 69.28C289.536 69.76 288.656 70 287.632 70ZM299.809 42.736C298.721 42.736 297.793 42.384 297.025 41.68C296.257 40.976 295.873 40.176 295.873 39.28C295.873 38.352 296.257 37.552 297.025 36.88C297.793 36.208 298.721 35.872 299.809 35.872C300.897 35.872 301.809 36.208 302.545 36.88C303.313 37.552 303.697 38.352 303.697 39.28C303.697 40.176 303.313 40.976 302.545 41.68C301.809 42.384 300.897 42.736 299.809 42.736ZM299.809 70C298.721 70 297.825 69.76 297.121 69.28C296.449 68.8 296.113 68.272 296.113 67.696V49.408C296.113 48.736 296.449 48.192 297.121 47.776C297.825 47.36 298.721 47.152 299.809 47.152C300.833 47.152 301.713 47.36 302.449 47.776C303.185 48.192 303.553 48.736 303.553 49.408V67.696C303.553 68.272 303.185 68.8 302.449 69.28C301.713 69.76 300.833 70 299.809 70ZM317.144 70C314.104 70 311.768 69.36 310.136 68.08C308.536 66.768 307.736 64.704 307.736 61.888V39.472C307.736 38.8 308.136 38.256 308.936 37.84C309.736 37.424 310.568 37.216 311.432 37.216C312.36 37.216 313.208 37.424 313.976 37.84C314.776 38.256 315.176 38.8 315.176 39.472V47.152H320.6C321.208 47.152 321.656 47.44 321.944 48.016C322.264 48.56 322.424 49.152 322.424 49.792C322.424 50.464 322.264 51.072 321.944 51.616C321.656 52.16 321.208 52.432 320.6 52.432H315.176V61.888C315.176 62.592 315.32 63.088 315.608 63.376C315.896 63.632 316.408 63.76 317.144 63.76H319.208C320.296 63.76 321.096 64.096 321.608 64.768C322.12 65.408 322.376 66.112 322.376 66.88C322.376 67.68 322.12 68.4 321.608 69.04C321.096 69.68 320.296 70 319.208 70H317.144ZM326.612 80.416C325.652 80.416 324.836 80.24 324.164 79.888C323.524 79.536 323.204 78.656 323.204 77.248C323.204 76.416 323.332 75.696 323.588 75.088C323.876 74.48 324.356 74.176 325.028 74.176C325.476 74.176 326.068 74.128 326.804 74.032C327.54 73.968 328.292 73.744 329.06 73.36C329.86 73.008 330.516 72.4 331.028 71.536C331.572 70.704 331.844 69.536 331.844 68.032L323.444 51.328C323.284 51.008 323.204 50.688 323.204 50.368C323.204 49.728 323.492 49.136 324.068 48.592C324.644 48.048 325.316 47.616 326.084 47.296C326.884 46.976 327.604 46.816 328.244 46.816C328.692 46.816 329.108 46.912 329.492 47.104C329.876 47.264 330.148 47.568 330.308 48.016L335.732 61.024L339.716 48.016C339.876 47.568 340.132 47.264 340.484 47.104C340.868 46.912 341.252 46.816 341.636 46.816C342.212 46.816 342.9 46.992 343.7 47.344C344.532 47.664 345.252 48.096 345.86 48.64C346.468 49.184 346.772 49.808 346.772 50.512C346.772 50.832 346.708 51.104 346.58 51.328L339.764 68.32C339.156 69.824 338.58 71.296 338.036 72.736C337.492 74.176 336.788 75.472 335.924 76.624C335.092 77.776 333.94 78.688 332.468 79.36C330.996 80.064 329.044 80.416 326.612 80.416Z" fill="#050D21"/>
<path d="M352.825 70C351.801 70 350.937 69.792 350.233 69.376C349.529 68.96 349.177 68.416 349.177 67.744V45.184C349.177 43.136 349.689 41.28 350.713 39.616C351.737 37.92 353.193 36.576 355.081 35.584C356.969 34.592 359.209 34.096 361.801 34.096C363.209 34.096 364.569 34.256 365.881 34.576C367.193 34.864 368.265 35.28 369.097 35.824C369.929 36.336 370.345 36.96 370.345 37.696C370.345 37.984 370.249 38.48 370.057 39.184C369.897 39.888 369.625 40.544 369.241 41.152C368.857 41.76 368.361 42.064 367.753 42.064C367.305 42.064 366.857 41.92 366.409 41.632C365.993 41.344 365.433 41.056 364.729 40.768C364.057 40.48 363.081 40.336 361.801 40.336C361.097 40.336 360.425 40.416 359.785 40.576C359.177 40.704 358.633 40.944 358.153 41.296C357.673 41.616 357.289 42.064 357.001 42.64C356.745 43.216 356.617 43.952 356.617 44.848V47.152H361.033C361.641 47.152 362.089 47.44 362.377 48.016C362.697 48.56 362.857 49.152 362.857 49.792C362.857 50.464 362.697 51.072 362.377 51.616C362.089 52.16 361.641 52.432 361.033 52.432H356.617V67.744C356.617 68.416 356.233 68.96 355.465 69.376C354.729 69.792 353.849 70 352.825 70ZM369.385 70C368.329 70 367.449 69.76 366.745 69.28C366.073 68.8 365.737 68.272 365.737 67.696V49.408C365.737 48.736 366.073 48.192 366.745 47.776C367.449 47.36 368.329 47.152 369.385 47.152C370.441 47.152 371.337 47.36 372.073 47.776C372.809 48.192 373.177 48.736 373.177 49.408V67.696C373.177 68.272 372.809 68.8 372.073 69.28C371.337 69.76 370.441 70 369.385 70ZM381.089 70C380.033 70 379.153 69.76 378.449 69.28C377.777 68.8 377.441 68.272 377.441 67.696V49.408C377.441 48.736 377.777 48.192 378.449 47.776C379.153 47.36 380.033 47.152 381.089 47.152C382.017 47.152 382.801 47.36 383.441 47.776C384.081 48.192 384.401 48.736 384.401 49.408V51.184C384.721 50.48 385.169 49.808 385.745 49.168C386.353 48.496 387.025 47.952 387.761 47.536C388.529 47.088 389.313 46.864 390.113 46.864H391.505C392.209 46.864 392.817 47.184 393.329 47.824C393.873 48.464 394.145 49.216 394.145 50.08C394.145 50.976 393.873 51.744 393.329 52.384C392.817 53.024 392.209 53.344 391.505 53.344H390.113C389.249 53.344 388.417 53.648 387.617 54.256C386.817 54.832 386.161 55.648 385.649 56.704C385.137 57.76 384.881 59.024 384.881 60.496V67.696C384.881 68.272 384.513 68.8 383.777 69.28C383.041 69.76 382.145 70 381.089 70ZM404.3 70.48C402.636 70.48 401.1 70.272 399.692 69.856C398.316 69.44 397.212 68.896 396.38 68.224C395.58 67.552 395.18 66.832 395.18 66.064C395.18 65.68 395.276 65.232 395.468 64.72C395.692 64.208 395.98 63.76 396.332 63.376C396.716 62.992 397.148 62.8 397.628 62.8C398.14 62.8 398.652 62.992 399.164 63.376C399.676 63.728 400.3 64.08 401.036 64.432C401.804 64.784 402.828 64.96 404.108 64.96C405.388 64.96 406.204 64.784 406.556 64.432C406.908 64.048 407.084 63.696 407.084 63.376C407.084 62.832 406.812 62.416 406.268 62.128C405.724 61.808 405.02 61.552 404.156 61.36C403.324 61.136 402.428 60.896 401.468 60.64C400.508 60.352 399.596 59.968 398.732 59.488C397.9 59.008 397.212 58.352 396.668 57.52C396.124 56.688 395.852 55.6 395.852 54.256C395.852 53.072 396.124 51.92 396.668 50.8C397.244 49.648 398.188 48.704 399.5 47.968C400.812 47.232 402.604 46.864 404.876 46.864C406.284 46.864 407.596 47.008 408.812 47.296C410.06 47.584 411.068 48 411.836 48.544C412.636 49.056 413.036 49.648 413.036 50.32C413.036 50.64 412.924 51.088 412.7 51.664C412.508 52.208 412.204 52.704 411.788 53.152C411.404 53.6 410.924 53.824 410.348 53.824C409.932 53.824 409.468 53.712 408.956 53.488C408.444 53.232 407.868 52.992 407.228 52.768C406.588 52.512 405.836 52.384 404.972 52.384C404.332 52.384 403.804 52.464 403.388 52.624C403.004 52.784 402.716 52.976 402.524 53.2C402.332 53.424 402.236 53.664 402.236 53.92C402.236 54.368 402.508 54.72 403.052 54.976C403.596 55.2 404.3 55.424 405.164 55.648C406.028 55.84 406.94 56.08 407.9 56.368C408.86 56.624 409.772 57.024 410.636 57.568C411.5 58.08 412.204 58.784 412.748 59.68C413.292 60.544 413.564 61.68 413.564 63.088C413.564 65.328 412.764 67.12 411.164 68.464C409.596 69.808 407.308 70.48 404.3 70.48ZM426.222 70C423.182 70 420.846 69.36 419.214 68.08C417.614 66.768 416.814 64.704 416.814 61.888V39.472C416.814 38.8 417.214 38.256 418.014 37.84C418.814 37.424 419.646 37.216 420.51 37.216C421.438 37.216 422.286 37.424 423.054 37.84C423.854 38.256 424.254 38.8 424.254 39.472V47.152H429.678C430.286 47.152 430.734 47.44 431.022 48.016C431.342 48.56 431.502 49.152 431.502 49.792C431.502 50.464 431.342 51.072 431.022 51.616C430.734 52.16 430.286 52.432 429.678 52.432H424.254V61.888C424.254 62.592 424.398 63.088 424.686 63.376C424.974 63.632 425.486 63.76 426.222 63.76H428.286C429.374 63.76 430.174 64.096 430.686 64.768C431.198 65.408 431.454 66.112 431.454 66.88C431.454 67.68 431.198 68.4 430.686 69.04C430.174 69.68 429.374 70 428.286 70H426.222Z" fill="#1A67F8"/>
</svg>
