<svg width="48" height="48" viewBox="0 0 48 48" fill="none" xmlns="http://www.w3.org/2000/svg">
<circle cx="24" cy="24" r="22.5" fill="white" stroke="black" stroke-width="3"/>
<path d="M31.5098 25.3262C31.3691 25.3262 31.2461 25.4375 31.1406 25.6602C30.6953 26.5273 30.2207 27.3125 29.7168 28.0156C29.2246 28.7188 28.7266 29.3164 28.2227 29.8086C27.7188 30.3008 27.2207 30.6816 26.7285 30.9512C26.2363 31.209 25.7734 31.3379 25.3398 31.3379C24.918 31.3379 24.5254 31.25 24.1621 31.0742C23.8105 30.8867 23.4238 30.541 23.002 30.0371C22.5918 29.5332 22.1172 28.8359 21.5781 27.9453C21.0508 27.0547 20.4004 25.8945 19.627 24.4648C19.498 24.2305 19.3633 24.0605 19.2227 23.9551C19.0938 23.8379 18.9766 23.7793 18.8711 23.7793C18.7188 23.7793 18.5781 23.9434 18.4492 24.2715C18.3203 24.5879 18.209 25.0391 18.1152 25.625C18.0215 26.1992 17.9453 26.8965 17.8867 27.7168C17.8398 28.5254 17.8164 29.4219 17.8164 30.4062C17.8164 30.9922 17.8457 31.5781 17.9043 32.1641C17.9746 32.75 18.0098 33.3535 18.0098 33.9746C18.0098 34.1855 17.9512 34.3848 17.834 34.5723C17.7168 34.748 17.5586 34.9004 17.3594 35.0293C17.1719 35.1699 16.9434 35.2812 16.6738 35.3633C16.416 35.4453 16.1406 35.4863 15.8477 35.4863C15.2617 35.4863 14.8398 35.1348 14.582 34.4316C14.3242 33.7285 14.1953 32.6035 14.1953 31.0566C14.1953 29.0996 14.3008 27.3242 14.5117 25.7305C14.7344 24.125 15.0449 22.7539 15.4434 21.6172C15.8535 20.4688 16.334 19.584 16.8848 18.9629C17.4473 18.3301 18.0742 18.0137 18.7656 18.0137C19.375 18.0137 19.9551 18.3652 20.5059 19.0684C21.0684 19.7598 21.6719 20.8848 22.3164 22.4434C22.5742 23.0762 22.8496 23.668 23.1426 24.2188C23.4473 24.7695 23.7461 25.25 24.0391 25.6602C24.3438 26.0586 24.6367 26.375 24.918 26.6094C25.1992 26.832 25.4512 26.9434 25.6738 26.9434C25.8965 26.9434 26.1074 26.8965 26.3066 26.8027C26.5176 26.6973 26.752 26.4805 27.0098 26.1523C27.2793 25.8125 27.5898 25.3203 27.9414 24.6758C28.3047 24.0312 28.75 23.1699 29.2773 22.0918C29.5586 21.5293 29.8105 21.0605 30.0332 20.6855C30.2559 20.3105 30.4785 20.0117 30.7012 19.7891C30.9238 19.5547 31.1582 19.3906 31.4043 19.2969C31.6504 19.1914 31.9258 19.1387 32.2305 19.1387C32.5938 19.1387 32.9512 19.332 33.3027 19.7188C33.6543 20.1055 33.9941 20.6211 34.3223 21.2656C34.6621 21.9102 34.9902 22.6602 35.3066 23.5156C35.623 24.3711 35.9277 25.2676 36.2207 26.2051C36.5254 27.1426 36.8184 28.0977 37.0996 29.0703C37.3926 30.0312 37.6738 30.9453 37.9434 31.8125C38.0137 32.0703 38.0605 32.252 38.084 32.3574C38.1191 32.4512 38.1367 32.5684 38.1367 32.709C38.1367 32.9082 38.0723 33.1074 37.9434 33.3066C37.8262 33.4941 37.668 33.6641 37.4688 33.8164C37.2695 33.9688 37.041 34.0918 36.7832 34.1855C36.5371 34.2793 36.291 34.3262 36.0449 34.3262C35.7168 34.3262 35.459 34.291 35.2715 34.2207C35.0957 34.1387 34.9551 33.998 34.8496 33.7988C34.791 33.6934 34.6914 33.4121 34.5508 32.9551C34.4102 32.498 34.2402 31.959 34.041 31.3379C33.8535 30.7051 33.6426 30.0371 33.4082 29.334C33.1855 28.6309 32.957 27.9863 32.7227 27.4004C32.5 26.8027 32.2832 26.3105 32.0723 25.9238C31.8613 25.5254 31.6738 25.3262 31.5098 25.3262Z" fill="black"/>
<path d="M18 12.9062C18 14.5631 16.6569 15.9062 15 15.9062C13.3432 15.9062 12 14.5631 12 12.9062C12 11.2494 13.3432 9.90625 15 9.90625C16.6569 9.90625 18 11.2494 18 12.9062Z" fill="black"/>
</svg>
