<svg width="199" height="48" viewBox="0 0 199 48" fill="none" xmlns="http://www.w3.org/2000/svg">
<circle cx="24" cy="24" r="22.5" fill="white" stroke="black" stroke-width="3"/>
<path d="M31.5098 25.3262C31.3691 25.3262 31.2461 25.4375 31.1406 25.6602C30.6953 26.5273 30.2207 27.3125 29.7168 28.0156C29.2246 28.7188 28.7266 29.3164 28.2227 29.8086C27.7188 30.3008 27.2207 30.6816 26.7285 30.9512C26.2363 31.209 25.7734 31.3379 25.3398 31.3379C24.918 31.3379 24.5254 31.25 24.1621 31.0742C23.8105 30.8867 23.4238 30.541 23.002 30.0371C22.5918 29.5332 22.1172 28.8359 21.5781 27.9453C21.0508 27.0547 20.4004 25.8945 19.627 24.4648C19.498 24.2305 19.3633 24.0605 19.2227 23.9551C19.0938 23.8379 18.9766 23.7793 18.8711 23.7793C18.7188 23.7793 18.5781 23.9434 18.4492 24.2715C18.3203 24.5879 18.209 25.0391 18.1152 25.625C18.0215 26.1992 17.9453 26.8965 17.8867 27.7168C17.8398 28.5254 17.8164 29.4219 17.8164 30.4062C17.8164 30.9922 17.8457 31.5781 17.9043 32.1641C17.9746 32.75 18.0098 33.3535 18.0098 33.9746C18.0098 34.1855 17.9512 34.3848 17.834 34.5723C17.7168 34.748 17.5586 34.9004 17.3594 35.0293C17.1719 35.1699 16.9434 35.2812 16.6738 35.3633C16.416 35.4453 16.1406 35.4863 15.8477 35.4863C15.2617 35.4863 14.8398 35.1348 14.582 34.4316C14.3242 33.7285 14.1953 32.6035 14.1953 31.0566C14.1953 29.0996 14.3008 27.3242 14.5117 25.7305C14.7344 24.125 15.0449 22.7539 15.4434 21.6172C15.8535 20.4688 16.334 19.584 16.8848 18.9629C17.4473 18.3301 18.0742 18.0137 18.7656 18.0137C19.375 18.0137 19.9551 18.3652 20.5059 19.0684C21.0684 19.7598 21.6719 20.8848 22.3164 22.4434C22.5742 23.0762 22.8496 23.668 23.1426 24.2188C23.4473 24.7695 23.7461 25.25 24.0391 25.6602C24.3438 26.0586 24.6367 26.375 24.918 26.6094C25.1992 26.832 25.4512 26.9434 25.6738 26.9434C25.8965 26.9434 26.1074 26.8965 26.3066 26.8027C26.5176 26.6973 26.752 26.4805 27.0098 26.1523C27.2793 25.8125 27.5898 25.3203 27.9414 24.6758C28.3047 24.0312 28.75 23.1699 29.2773 22.0918C29.5586 21.5293 29.8105 21.0605 30.0332 20.6855C30.2559 20.3105 30.4785 20.0117 30.7012 19.7891C30.9238 19.5547 31.1582 19.3906 31.4043 19.2969C31.6504 19.1914 31.9258 19.1387 32.2305 19.1387C32.5938 19.1387 32.9512 19.332 33.3027 19.7188C33.6543 20.1055 33.9941 20.6211 34.3223 21.2656C34.6621 21.9102 34.9902 22.6602 35.3066 23.5156C35.623 24.3711 35.9277 25.2676 36.2207 26.2051C36.5254 27.1426 36.8184 28.0977 37.0996 29.0703C37.3926 30.0312 37.6738 30.9453 37.9434 31.8125C38.0137 32.0703 38.0605 32.252 38.084 32.3574C38.1191 32.4512 38.1367 32.5684 38.1367 32.709C38.1367 32.9082 38.0723 33.1074 37.9434 33.3066C37.8262 33.4941 37.668 33.6641 37.4688 33.8164C37.2695 33.9688 37.041 34.0918 36.7832 34.1855C36.5371 34.2793 36.291 34.3262 36.0449 34.3262C35.7168 34.3262 35.459 34.291 35.2715 34.2207C35.0957 34.1387 34.9551 33.998 34.8496 33.7988C34.791 33.6934 34.6914 33.4121 34.5508 32.9551C34.4102 32.498 34.2402 31.959 34.041 31.3379C33.8535 30.7051 33.6426 30.0371 33.4082 29.334C33.1855 28.6309 32.957 27.9863 32.7227 27.4004C32.5 26.8027 32.2832 26.3105 32.0723 25.9238C31.8613 25.5254 31.6738 25.3262 31.5098 25.3262Z" fill="black"/>
<path d="M18 12.9062C18 14.5631 16.6569 15.9062 15 15.9062C13.3432 15.9062 12 14.5631 12 12.9062C12 11.2494 13.3432 9.90625 15 9.90625C16.6569 9.90625 18 11.2494 18 12.9062Z" fill="black"/>
<path d="M60.1406 27.3906C59.776 27.3906 59.4844 27.3073 59.2656 27.1406C59.0573 26.9635 58.9531 26.7135 58.9531 26.3906C58.9531 26.3281 58.9583 26.2656 58.9688 26.2031C58.9896 26.1302 59.0104 26.0521 59.0312 25.9688L59.125 25.625C59.2812 24.9062 59.7396 24.5312 60.5 24.5C61.2708 24.4792 62.0365 24.4635 62.7969 24.4531C63.5573 24.4427 64.3177 24.4375 65.0781 24.4375C65.4323 24.4375 65.776 24.4375 66.1094 24.4375C66.4531 24.4375 66.7917 24.4479 67.125 24.4688C67.5104 24.4688 67.8385 24.3333 68.1094 24.0625L69.0156 23.0938C69.1719 22.9375 69.2812 22.7812 69.3438 22.625C69.4167 22.4688 69.4531 22.3177 69.4531 22.1719C69.4531 21.974 69.3802 21.8073 69.2344 21.6719C69.099 21.5365 68.8958 21.4583 68.625 21.4375C66.8542 21.4375 65.3542 21.4479 64.125 21.4688C62.9062 21.4896 61.974 21.5 61.3281 21.5C60.5365 21.5 60.1406 21.1667 60.1406 20.5C60.1406 20.4375 60.1458 20.3698 60.1562 20.2969C60.1667 20.224 60.1823 20.1458 60.2031 20.0625L60.2969 19.7344C60.4635 18.9844 60.9375 18.6094 61.7188 18.6094C62.5208 18.5885 63.3229 18.5677 64.125 18.5469C64.9271 18.526 65.7344 18.5156 66.5469 18.5156C67.3281 18.5156 68.026 18.526 68.6406 18.5469C69.2552 18.5573 69.8073 18.5938 70.2969 18.6562C70.7969 18.7188 71.2448 18.8073 71.6406 18.9219C72.0365 19.0365 72.4167 19.1927 72.7812 19.3906C73.0417 19.5365 73.2344 19.6771 73.3594 19.8125C73.4948 19.9375 73.6042 20.0729 73.6875 20.2188C73.7396 20.3125 73.7812 20.4115 73.8125 20.5156C73.8542 20.6094 73.875 20.724 73.875 20.8594C73.875 21.0573 73.8333 21.2604 73.75 21.4688C73.6562 21.7292 73.5156 21.9948 73.3281 22.2656C73.151 22.5365 72.9479 22.8021 72.7188 23.0625C72.5 23.3125 72.2708 23.5573 72.0312 23.7969C71.8021 24.0365 71.5938 24.2604 71.4062 24.4688C71.3854 24.4896 71.375 24.5208 71.375 24.5625C71.375 24.6667 71.4583 24.75 71.625 24.8125C71.7917 24.8646 72.0156 24.901 72.2969 24.9219C73.0573 24.9844 73.8073 25.0573 74.5469 25.1406C75.2865 25.2135 76.0312 25.3021 76.7812 25.4062C77.1042 25.4375 77.3542 25.5365 77.5312 25.7031C77.7188 25.8594 77.8125 26.0677 77.8125 26.3281C77.8125 26.526 77.7552 26.7396 77.6406 26.9688C77.6094 27.0312 77.5781 27.0938 77.5469 27.1562C77.526 27.2188 77.5052 27.2865 77.4844 27.3594C77.1927 27.974 76.7552 28.2812 76.1719 28.2812C76.1406 28.2812 76.1042 28.276 76.0625 28.2656C76.0208 28.2552 75.974 28.25 75.9219 28.25C75.3385 28.1667 74.6927 28.0938 73.9844 28.0312C73.2865 27.9583 72.599 27.8958 71.9219 27.8438C71.2552 27.7917 70.6406 27.75 70.0781 27.7188C69.526 27.6875 69.1042 27.6719 68.8125 27.6719C68.4896 27.6719 68.2031 27.8021 67.9531 28.0625C67.526 28.5208 67.1354 28.9583 66.7812 29.375C66.4375 29.7812 66.0833 30.2396 65.7188 30.75C65.6146 30.8958 65.5312 31.0312 65.4688 31.1562C65.4167 31.2812 65.3906 31.4115 65.3906 31.5469C65.3906 31.7656 65.474 31.9583 65.6406 32.125C65.8177 32.2812 66.0573 32.375 66.3594 32.4062C67.2552 32.5208 68.1771 32.5885 69.125 32.6094C70.0833 32.6198 71.0677 32.625 72.0781 32.625C72.3698 32.625 72.6667 32.6198 72.9688 32.6094C73.2708 32.599 73.5729 32.5833 73.875 32.5625C74.6875 32.5 75.0938 32.2344 75.0938 31.7656C75.0938 31.5573 75.1771 31.3906 75.3438 31.2656C75.5208 31.1302 75.776 31.0625 76.1094 31.0625C76.3385 31.0625 76.6302 31.1042 76.9844 31.1875C77.3385 31.2604 77.6771 31.375 78 31.5312C78.3229 31.6875 78.599 31.8802 78.8281 32.1094C79.0677 32.3385 79.1875 32.599 79.1875 32.8906C79.1875 33.1198 79.1198 33.3438 78.9844 33.5625C78.849 33.7812 78.6719 33.9844 78.4531 34.1719C78.2344 34.349 77.9948 34.5052 77.7344 34.6406C77.474 34.7656 77.2188 34.8542 76.9688 34.9062C76.0729 35.0938 75.026 35.2396 73.8281 35.3438C72.6406 35.4583 71.4271 35.5156 70.1875 35.5156C69.2188 35.5156 68.2917 35.4844 67.4062 35.4219C66.5208 35.3698 65.7344 35.2917 65.0469 35.1875C64.6719 35.1354 64.2917 35.0729 63.9062 35C63.5208 34.9167 63.1615 34.7969 62.8281 34.6406C62.5052 34.4844 62.224 34.276 61.9844 34.0156C61.7448 33.7552 61.5885 33.4115 61.5156 32.9844C61.5156 32.9323 61.5104 32.8906 61.5 32.8594C61.4896 32.8281 61.4844 32.7865 61.4844 32.7344C61.4844 32.4115 61.5677 32.0573 61.7344 31.6719C61.901 31.276 62.1146 30.8802 62.375 30.4844C62.6354 30.0885 62.9167 29.7031 63.2188 29.3281C63.5312 28.9427 63.8281 28.5938 64.1094 28.2812C64.2865 28.0729 64.375 27.8906 64.375 27.7344C64.375 27.6094 64.3125 27.5104 64.1875 27.4375C64.0625 27.3542 63.8854 27.3125 63.6562 27.3125L60.1406 27.3906ZM93.3125 31.5781C93.6146 31.3177 93.9115 31.1875 94.2031 31.1875C94.3698 31.1875 94.5208 31.2292 94.6562 31.3125C94.7917 31.3958 94.9427 31.526 95.1094 31.7031C95.2656 31.9427 95.375 32.1406 95.4375 32.2969C95.5104 32.4427 95.5469 32.5885 95.5469 32.7344C95.5469 33.0469 95.3906 33.3438 95.0781 33.625C94.5781 34.0417 94.0365 34.4167 93.4531 34.75C92.8698 35.0729 92.2604 35.349 91.625 35.5781C90.9896 35.8073 90.3333 35.9792 89.6562 36.0938C88.9792 36.2188 88.3073 36.2812 87.6406 36.2812C86.7969 36.2812 86.0052 36.1719 85.2656 35.9531C84.526 35.7448 83.8646 35.4427 83.2812 35.0469C82.7083 34.651 82.224 34.1771 81.8281 33.625C81.4323 33.0625 81.151 32.4323 80.9844 31.7344C80.8906 31.4427 80.8021 31.2552 80.7188 31.1719C80.6458 31.0781 80.5208 31.0312 80.3438 31.0312C79.9583 31.0312 79.6615 30.9375 79.4531 30.75C79.2448 30.5625 79.1406 30.2917 79.1406 29.9375C79.1406 29.7917 79.151 29.6979 79.1719 29.6562L79.2031 29.3438C79.2552 28.9688 79.3542 28.6979 79.5 28.5312C79.6562 28.3646 79.8958 28.2812 80.2188 28.2812H80.4531C80.8906 28.2812 81.1979 28.0781 81.375 27.6719C81.6979 26.9531 82.1094 26.2969 82.6094 25.7031C83.1094 25.1094 83.6719 24.6042 84.2969 24.1875C84.9219 23.7604 85.5885 23.4323 86.2969 23.2031C87.0156 22.9635 87.7448 22.8438 88.4844 22.8438C89.2552 22.8438 89.974 22.9583 90.6406 23.1875C91.3177 23.4062 91.9062 23.7135 92.4062 24.1094C92.9062 24.5052 93.2969 24.9688 93.5781 25.5C93.8698 26.0312 94.0156 26.6042 94.0156 27.2188C94.0156 27.6458 93.9323 28.0365 93.7656 28.3906C93.599 28.7448 93.3594 29.0573 93.0469 29.3281C92.7344 29.5885 92.3542 29.8021 91.9062 29.9688C91.4688 30.1354 90.9688 30.2448 90.4062 30.2969L84.9844 30.8438C84.776 30.8438 84.6042 30.8958 84.4688 31C84.3438 31.1042 84.2812 31.2448 84.2812 31.4219C84.2812 31.6927 84.3802 31.9531 84.5781 32.2031C84.7865 32.4531 85.0573 32.6771 85.3906 32.875C85.7344 33.0625 86.125 33.2135 86.5625 33.3281C87.0104 33.4427 87.4688 33.5 87.9375 33.5C88.3854 33.5 88.8438 33.4583 89.3125 33.375C89.7917 33.2812 90.2604 33.151 90.7188 32.9844C91.1875 32.8177 91.6406 32.6198 92.0781 32.3906C92.5156 32.151 92.9271 31.8802 93.3125 31.5781ZM89.8281 27.5469C89.9844 27.5156 90.1198 27.4427 90.2344 27.3281C90.349 27.2031 90.4062 27.0521 90.4062 26.875C90.4062 26.7188 90.349 26.5729 90.2344 26.4375C90.1198 26.3021 89.9635 26.1823 89.7656 26.0781C89.5677 25.9635 89.3385 25.875 89.0781 25.8125C88.8177 25.75 88.5417 25.7188 88.25 25.7188C87.8229 25.7188 87.3854 25.7812 86.9375 25.9062C86.4896 26.0312 86.0833 26.1979 85.7188 26.4062C85.3542 26.6042 85.0573 26.8281 84.8281 27.0781C84.599 27.3177 84.4844 27.5573 84.4844 27.7969C84.4844 28.0365 84.6302 28.1562 84.9219 28.1562C85.099 28.1562 85.3854 28.1354 85.7812 28.0938C86.1771 28.0521 86.6146 28.0052 87.0938 27.9531C87.5729 27.8906 88.0573 27.8229 88.5469 27.75C89.0365 27.6771 89.4635 27.6094 89.8281 27.5469ZM105.016 23.3125C104.63 23.3125 104.292 23.4167 104 23.625C103.708 23.8229 103.458 24.1042 103.25 24.4688C103.042 24.8229 102.87 25.2448 102.734 25.7344C102.599 26.2135 102.49 26.7396 102.406 27.3125C102.323 27.8854 102.266 28.4844 102.234 29.1094C102.203 29.7344 102.188 30.3646 102.188 31C102.188 31.8333 102.219 32.6562 102.281 33.4688C102.354 34.2708 102.391 35.0156 102.391 35.7031C102.391 36.151 102.224 36.5 101.891 36.75C101.557 37.0104 101.083 37.1406 100.469 37.1406C100.354 37.1406 100.224 37.1302 100.078 37.1094C99.9323 37.0885 99.7917 37.0469 99.6562 36.9844C99.5312 36.9219 99.4167 36.8333 99.3125 36.7188C99.2188 36.6146 99.1667 36.4688 99.1562 36.2812C99.0625 35.3646 98.9271 34.4271 98.75 33.4688C98.5729 32.5104 98.349 31.5573 98.0781 30.6094C97.8177 29.651 97.5 28.7031 97.125 27.7656C96.7604 26.8281 96.3385 25.9115 95.8594 25.0156C95.776 24.8594 95.7031 24.7135 95.6406 24.5781C95.5885 24.4427 95.5625 24.3125 95.5625 24.1875C95.5625 24.0312 95.6302 23.8646 95.7656 23.6875C95.9115 23.5 96.0885 23.3281 96.2969 23.1719C96.5156 23.0156 96.75 22.8906 97 22.7969C97.2604 22.6927 97.5104 22.6406 97.75 22.6406C98.1458 22.6406 98.4948 22.9167 98.7969 23.4688C99.099 24.0104 99.3802 24.8802 99.6406 26.0781C99.6927 26.2865 99.7344 26.4323 99.7656 26.5156C99.7969 26.599 99.8385 26.6406 99.8906 26.6406C100.005 26.6406 100.078 26.4635 100.109 26.1094C100.234 25.1198 100.448 24.2708 100.75 23.5625C101.052 22.8438 101.427 22.2552 101.875 21.7969C102.333 21.3281 102.854 20.9844 103.438 20.7656C104.031 20.5469 104.682 20.4375 105.391 20.4375C105.797 20.4375 106.208 20.474 106.625 20.5469C107.042 20.6198 107.417 20.7292 107.75 20.875C108.083 21.0208 108.354 21.1979 108.562 21.4062C108.771 21.6146 108.875 21.849 108.875 22.1094C108.875 22.2969 108.833 22.5208 108.75 22.7812C108.677 23.0312 108.578 23.276 108.453 23.5156C108.328 23.7448 108.182 23.9427 108.016 24.1094C107.859 24.2656 107.698 24.3438 107.531 24.3438C107.344 24.3438 107.161 24.2917 106.984 24.1875C106.807 24.0729 106.615 23.9531 106.406 23.8281C106.208 23.7031 105.995 23.5885 105.766 23.4844C105.547 23.3698 105.297 23.3125 105.016 23.3125ZM108.094 29.8125C108.094 29.6354 108.115 29.4375 108.156 29.2188C108.198 29 108.219 28.7604 108.219 28.5C108.219 28.3229 108.141 28.1875 107.984 28.0938C107.839 28 107.672 27.8958 107.484 27.7812C107.297 27.6667 107.125 27.5208 106.969 27.3438C106.823 27.1667 106.75 26.9115 106.75 26.5781C106.75 26.3385 106.812 26.099 106.938 25.8594C107.073 25.6198 107.266 25.401 107.516 25.2031C108.13 24.7448 108.766 24.3333 109.422 23.9688C110.089 23.6042 110.75 23.2969 111.406 23.0469C112.073 22.7969 112.729 22.6042 113.375 22.4688C114.021 22.3333 114.641 22.2656 115.234 22.2656C116.234 22.2656 117.172 22.4531 118.047 22.8281C118.932 23.1927 119.698 23.6979 120.344 24.3438C121 24.9792 121.516 25.7292 121.891 26.5938C122.276 27.4479 122.469 28.3646 122.469 29.3438C122.469 30.3021 122.266 31.2135 121.859 32.0781C121.464 32.9323 120.927 33.6823 120.25 34.3281C119.573 34.974 118.776 35.4844 117.859 35.8594C116.953 36.2448 115.995 36.4375 114.984 36.4375C113.995 36.4375 113.078 36.2708 112.234 35.9375C111.391 35.6042 110.661 35.1458 110.047 34.5625C109.432 33.9688 108.953 33.2708 108.609 32.4688C108.266 31.6562 108.094 30.7708 108.094 29.8125ZM115.328 33.625C115.766 33.625 116.219 33.5365 116.688 33.3594C117.156 33.1823 117.583 32.9271 117.969 32.5938C118.365 32.25 118.688 31.8333 118.938 31.3438C119.198 30.8542 119.328 30.3021 119.328 29.6875C119.328 29.0625 119.214 28.4792 118.984 27.9375C118.755 27.3958 118.438 26.9271 118.031 26.5312C117.635 26.125 117.161 25.8073 116.609 25.5781C116.068 25.349 115.479 25.2344 114.844 25.2344C113.688 25.2344 112.802 25.5365 112.188 26.1406C111.573 26.7344 111.266 27.651 111.266 28.8906C111.266 29.5677 111.365 30.1979 111.562 30.7812C111.771 31.3542 112.057 31.8542 112.422 32.2812C112.786 32.6979 113.214 33.026 113.703 33.2656C114.203 33.5052 114.745 33.625 115.328 33.625ZM139.672 26.4844C139.547 26.4844 139.438 26.5833 139.344 26.7812C138.948 27.5521 138.526 28.25 138.078 28.875C137.641 29.5 137.198 30.0312 136.75 30.4688C136.302 30.9062 135.859 31.2448 135.422 31.4844C134.984 31.7135 134.573 31.8281 134.188 31.8281C133.812 31.8281 133.464 31.75 133.141 31.5938C132.828 31.4271 132.484 31.1198 132.109 30.6719C131.745 30.224 131.323 29.6042 130.844 28.8125C130.375 28.0208 129.797 26.9896 129.109 25.7188C128.995 25.5104 128.875 25.3594 128.75 25.2656C128.635 25.1615 128.531 25.1094 128.438 25.1094C128.302 25.1094 128.177 25.2552 128.062 25.5469C127.948 25.8281 127.849 26.2292 127.766 26.75C127.682 27.2604 127.615 27.8802 127.562 28.6094C127.521 29.3281 127.5 30.125 127.5 31C127.5 31.5208 127.526 32.0417 127.578 32.5625C127.641 33.0833 127.672 33.6198 127.672 34.1719C127.672 34.3594 127.62 34.5365 127.516 34.7031C127.411 34.8594 127.271 34.9948 127.094 35.1094C126.927 35.2344 126.724 35.3333 126.484 35.4062C126.255 35.4792 126.01 35.5156 125.75 35.5156C125.229 35.5156 124.854 35.2031 124.625 34.5781C124.396 33.9531 124.281 32.9531 124.281 31.5781C124.281 29.8385 124.375 28.2604 124.562 26.8438C124.76 25.4167 125.036 24.1979 125.391 23.1875C125.755 22.1667 126.182 21.3802 126.672 20.8281C127.172 20.2656 127.729 19.9844 128.344 19.9844C128.885 19.9844 129.401 20.2969 129.891 20.9219C130.391 21.5365 130.927 22.5365 131.5 23.9219C131.729 24.4844 131.974 25.0104 132.234 25.5C132.505 25.9896 132.771 26.4167 133.031 26.7812C133.302 27.1354 133.562 27.4167 133.812 27.625C134.062 27.8229 134.286 27.9219 134.484 27.9219C134.682 27.9219 134.87 27.8802 135.047 27.7969C135.234 27.7031 135.443 27.5104 135.672 27.2188C135.911 26.9167 136.188 26.4792 136.5 25.9062C136.823 25.3333 137.219 24.5677 137.688 23.6094C137.938 23.1094 138.161 22.6927 138.359 22.3594C138.557 22.026 138.755 21.7604 138.953 21.5625C139.151 21.3542 139.359 21.2083 139.578 21.125C139.797 21.0312 140.042 20.9844 140.312 20.9844C140.635 20.9844 140.953 21.1562 141.266 21.5C141.578 21.8438 141.88 22.3021 142.172 22.875C142.474 23.4479 142.766 24.1146 143.047 24.875C143.328 25.6354 143.599 26.4323 143.859 27.2656C144.13 28.099 144.391 28.9479 144.641 29.8125C144.901 30.6667 145.151 31.4792 145.391 32.25C145.453 32.4792 145.495 32.6406 145.516 32.7344C145.547 32.8177 145.562 32.9219 145.562 33.0469C145.562 33.224 145.505 33.401 145.391 33.5781C145.286 33.7448 145.146 33.8958 144.969 34.0312C144.792 34.1667 144.589 34.276 144.359 34.3594C144.141 34.4427 143.922 34.4844 143.703 34.4844C143.411 34.4844 143.182 34.4531 143.016 34.3906C142.859 34.3177 142.734 34.1927 142.641 34.0156C142.589 33.9219 142.5 33.6719 142.375 33.2656C142.25 32.8594 142.099 32.3802 141.922 31.8281C141.755 31.2656 141.568 30.6719 141.359 30.0469C141.161 29.4219 140.958 28.849 140.75 28.3281C140.552 27.7969 140.359 27.3594 140.172 27.0156C139.984 26.6615 139.818 26.4844 139.672 26.4844ZM149.078 19.0625C148.776 19.0625 148.49 19.0208 148.219 18.9375C147.958 18.8438 147.729 18.7188 147.531 18.5625C147.344 18.3958 147.193 18.2031 147.078 17.9844C146.964 17.7656 146.906 17.526 146.906 17.2656C146.906 16.8281 147.078 16.474 147.422 16.2031C147.776 15.9323 148.245 15.7969 148.828 15.7969C149.099 15.7969 149.359 15.849 149.609 15.9531C149.859 16.0469 150.078 16.1771 150.266 16.3438C150.464 16.5104 150.62 16.7083 150.734 16.9375C150.849 17.1562 150.906 17.3854 150.906 17.625C150.906 18.0729 150.74 18.4271 150.406 18.6875C150.083 18.9375 149.641 19.0625 149.078 19.0625ZM146.938 23.8281C146.938 23.4635 147.094 23.1667 147.406 22.9375C147.729 22.6979 148.151 22.5781 148.672 22.5781C149.609 22.5781 150.109 22.901 150.172 23.5469C150.214 23.9948 150.255 24.5 150.297 25.0625C150.349 25.625 150.396 26.224 150.438 26.8594C150.49 27.4844 150.531 28.1354 150.562 28.8125C150.604 29.4792 150.641 30.1406 150.672 30.7969C150.703 31.4427 150.729 32.0677 150.75 32.6719C150.771 33.276 150.781 33.8281 150.781 34.3281C150.781 34.849 150.594 35.2396 150.219 35.5C149.854 35.7604 149.318 35.8906 148.609 35.8906C148.286 35.8906 148.031 35.8125 147.844 35.6562C147.667 35.5104 147.578 35.2917 147.578 35C147.578 33.5625 147.542 32.2188 147.469 30.9688C147.406 29.7083 147.333 28.5885 147.25 27.6094C147.177 26.6302 147.104 25.8177 147.031 25.1719C146.969 24.5156 146.938 24.0677 146.938 23.8281ZM153.938 22.3906C153.938 22.2344 154.005 22.0833 154.141 21.9375C154.276 21.7812 154.453 21.6458 154.672 21.5312C154.891 21.4062 155.135 21.3073 155.406 21.2344C155.688 21.151 155.969 21.1094 156.25 21.1094C156.406 21.1094 156.536 21.151 156.641 21.2344C156.755 21.3177 156.854 21.4792 156.938 21.7188C157.021 21.9479 157.094 22.276 157.156 22.7031C157.229 23.1198 157.297 23.6667 157.359 24.3438C157.401 24.5521 157.438 24.7135 157.469 24.8281C157.51 24.9323 157.562 24.9844 157.625 24.9844C157.719 24.9844 157.812 24.8229 157.906 24.5C158.667 22.3021 159.766 21.2031 161.203 21.2031C161.87 21.2031 162.474 21.4115 163.016 21.8281C163.568 22.2448 164.078 22.9271 164.547 23.875C165.026 24.8125 165.479 26.0521 165.906 27.5938C166.333 29.125 166.76 31.0156 167.188 33.2656C167.208 33.3802 167.224 33.4844 167.234 33.5781C167.245 33.6719 167.25 33.7604 167.25 33.8438C167.25 34.0833 167.193 34.2917 167.078 34.4688C166.974 34.6354 166.833 34.776 166.656 34.8906C166.479 34.9948 166.281 35.0729 166.062 35.125C165.844 35.1875 165.625 35.2188 165.406 35.2188C164.969 35.2188 164.651 35.1719 164.453 35.0781C164.266 34.9844 164.146 34.8073 164.094 34.5469C163.792 32.9635 163.495 31.5573 163.203 30.3281C162.922 29.099 162.641 28.0677 162.359 27.2344C162.089 26.3906 161.818 25.75 161.547 25.3125C161.276 24.875 161.005 24.6562 160.734 24.6562C160.464 24.6562 160.208 24.8281 159.969 25.1719C159.74 25.5052 159.516 26.0312 159.297 26.75C159.078 27.4688 158.865 28.3802 158.656 29.4844C158.458 30.5885 158.266 31.9062 158.078 33.4375C158.026 33.8542 157.818 34.1875 157.453 34.4375C157.089 34.6875 156.625 34.8125 156.062 34.8125C155.688 34.8125 155.401 34.7344 155.203 34.5781C155.005 34.4219 154.896 34.2083 154.875 33.9375C154.781 31.7708 154.677 29.9896 154.562 28.5938C154.458 27.1875 154.359 26.0625 154.266 25.2188C154.172 24.3646 154.094 23.7292 154.031 23.3125C153.969 22.8958 153.938 22.5885 153.938 22.3906ZM179.344 23.5781C179.385 23.599 179.448 23.6094 179.531 23.6094C179.76 23.6094 179.875 23.4583 179.875 23.1562V18.2969C179.875 17.6823 180.01 17.2448 180.281 16.9844C180.562 16.724 181.026 16.5938 181.672 16.5938C182.328 16.5938 182.792 16.7292 183.062 17C183.333 17.2708 183.469 17.7344 183.469 18.3906C183.469 18.6406 183.453 19.0104 183.422 19.5C183.391 19.9792 183.354 20.526 183.312 21.1406C183.281 21.7552 183.25 22.4167 183.219 23.125C183.188 23.8229 183.172 24.5156 183.172 25.2031C183.172 26.2656 183.245 27.1823 183.391 27.9531C183.536 28.724 183.745 29.3646 184.016 29.875C184.286 30.375 184.609 30.75 184.984 31C185.359 31.2396 185.781 31.3594 186.25 31.3594C186.51 31.3594 186.745 31.3281 186.953 31.2656C187.172 31.1927 187.427 31.1562 187.719 31.1562C187.927 31.1562 188.099 31.2656 188.234 31.4844C188.38 31.6927 188.453 31.9479 188.453 32.25C188.453 32.5208 188.37 32.776 188.203 33.0156C188.047 33.2552 187.828 33.4635 187.547 33.6406C187.276 33.8177 186.958 33.9583 186.594 34.0625C186.229 34.1562 185.849 34.2031 185.453 34.2031C184.599 34.2031 183.818 33.9427 183.109 33.4219C182.401 32.8906 181.87 32.0833 181.516 31C181.484 30.8333 181.432 30.75 181.359 30.75C181.276 30.75 181.208 30.8333 181.156 31C180.875 31.7604 180.505 32.4479 180.047 33.0625C179.599 33.6667 179.073 34.1875 178.469 34.625C177.875 35.0521 177.219 35.3802 176.5 35.6094C175.792 35.8385 175.042 35.9531 174.25 35.9531C173.417 35.9531 172.651 35.8125 171.953 35.5312C171.266 35.2604 170.672 34.8802 170.172 34.3906C169.672 33.8906 169.281 33.3073 169 32.6406C168.719 31.9635 168.578 31.2344 168.578 30.4531C168.578 29.4531 168.786 28.5104 169.203 27.625C169.62 26.7396 170.182 25.9688 170.891 25.3125C171.609 24.6458 172.443 24.1198 173.391 23.7344C174.339 23.349 175.349 23.1562 176.422 23.1562C176.859 23.1562 177.323 23.1927 177.812 23.2656C178.302 23.3281 178.812 23.4323 179.344 23.5781ZM174.859 33.1406C175.453 33.1406 175.979 33.0104 176.438 32.75C176.906 32.4896 177.318 32.1615 177.672 31.7656C178.036 31.3594 178.344 30.9167 178.594 30.4375C178.844 29.9479 179.047 29.474 179.203 29.0156C179.359 28.5573 179.474 28.1458 179.547 27.7812C179.62 27.4167 179.656 27.1562 179.656 27C179.656 26.8854 179.625 26.7865 179.562 26.7031C179.5 26.6094 179.406 26.5365 179.281 26.4844C179 26.4115 178.708 26.349 178.406 26.2969C178.104 26.2344 177.807 26.1823 177.516 26.1406C177.224 26.099 176.943 26.0677 176.672 26.0469C176.411 26.026 176.172 26.0156 175.953 26.0156C175.328 26.0156 174.76 26.1094 174.25 26.2969C173.74 26.4844 173.302 26.75 172.938 27.0938C172.583 27.4375 172.307 27.849 172.109 28.3281C171.911 28.7969 171.812 29.3125 171.812 29.875C171.812 30.375 171.885 30.8281 172.031 31.2344C172.188 31.6302 172.396 31.9688 172.656 32.25C172.927 32.5312 173.25 32.75 173.625 32.9062C174 33.0625 174.411 33.1406 174.859 33.1406ZM191.531 21.4375C192.229 21.4375 192.948 21.5312 193.688 21.7188C194.427 21.8958 195.104 22.1302 195.719 22.4219C196.333 22.7031 196.839 23.0208 197.234 23.375C197.63 23.7292 197.828 24.0729 197.828 24.4062C197.828 24.5729 197.755 24.7604 197.609 24.9688C197.464 25.1667 197.286 25.3594 197.078 25.5469C196.87 25.724 196.641 25.875 196.391 26C196.151 26.1146 195.938 26.1719 195.75 26.1719C195.5 26.1719 195.219 26.0677 194.906 25.8594C194.604 25.651 194.266 25.4219 193.891 25.1719C193.526 24.9115 193.125 24.6771 192.688 24.4688C192.25 24.2604 191.776 24.1562 191.266 24.1562C190.932 24.1562 190.656 24.2396 190.438 24.4062C190.229 24.5625 190.125 24.7865 190.125 25.0781C190.125 25.3385 190.25 25.6042 190.5 25.875C190.75 26.1354 191.078 26.4062 191.484 26.6875C191.901 26.9688 192.37 27.2656 192.891 27.5781C193.411 27.8906 193.943 28.224 194.484 28.5781C195.036 28.9323 195.573 29.3177 196.094 29.7344C196.615 30.151 197.078 30.6042 197.484 31.0938C197.901 31.5833 198.234 32.1198 198.484 32.7031C198.734 33.276 198.859 33.901 198.859 34.5781C198.859 35.1615 198.755 35.6927 198.547 36.1719C198.339 36.651 198.042 37.0625 197.656 37.4062C197.271 37.75 196.812 38.0156 196.281 38.2031C195.75 38.3906 195.167 38.4844 194.531 38.4844C193.729 38.4844 192.99 38.3594 192.312 38.1094C191.635 37.8698 191.052 37.5365 190.562 37.1094C190.073 36.6823 189.688 36.1719 189.406 35.5781C189.135 34.9844 189 34.3333 189 33.625C189 32.7083 189.161 32.0417 189.484 31.625C189.818 31.2083 190.339 31 191.047 31C191.484 31 191.833 31.0833 192.094 31.25C192.354 31.4167 192.484 31.6198 192.484 31.8594C192.484 31.9844 192.464 32.1146 192.422 32.25C192.38 32.375 192.333 32.5104 192.281 32.6562C192.24 32.7917 192.198 32.9375 192.156 33.0938C192.125 33.25 192.109 33.4062 192.109 33.5625C192.109 33.8333 192.172 34.0938 192.297 34.3438C192.422 34.5938 192.589 34.8125 192.797 35C193.016 35.1979 193.266 35.3542 193.547 35.4688C193.828 35.5833 194.125 35.6406 194.438 35.6406C195.271 35.6406 195.688 35.2969 195.688 34.6094C195.688 34.0677 195.474 33.5573 195.047 33.0781C194.62 32.5885 194.083 32.1146 193.438 31.6562C192.792 31.1875 192.094 30.7188 191.344 30.25C190.604 29.7812 189.911 29.2917 189.266 28.7812C188.62 28.2708 188.083 27.7292 187.656 27.1562C187.229 26.5729 187.016 25.9427 187.016 25.2656C187.016 24.7031 187.13 24.1875 187.359 23.7188C187.599 23.25 187.922 22.849 188.328 22.5156C188.734 22.1719 189.208 21.9062 189.75 21.7188C190.302 21.5312 190.896 21.4375 191.531 21.4375Z" fill="#111827"/>
</svg>
