<svg width="257" height="45" viewBox="0 0 257 45" fill="none" xmlns="http://www.w3.org/2000/svg">
<g filter="url(#filter0_d_402_314)">
<mask id="path-1-outside-1_402_314" maskUnits="userSpaceOnUse" x="4.14404" y="4.07202" width="249" height="37" fill="black">
<rect fill="white" x="4.14404" y="4.07202" width="249" height="37"/>
<path d="M15.62 32C14.924 32 14.276 31.856 13.676 31.568C13.1 31.28 12.812 30.848 12.812 30.272V21.236C12.812 21.044 12.764 20.876 12.668 20.732L5.21604 8.38402C5.19204 8.31202 5.16804 8.24002 5.14404 8.16802C5.14404 8.09602 5.14404 8.03602 5.14404 7.98802C5.14404 7.53202 5.34804 7.13602 5.75604 6.80002C6.18804 6.46402 6.70404 6.20002 7.30404 6.00802C7.90404 5.79202 8.45604 5.68402 8.96004 5.68402C9.41604 5.68402 9.75204 5.78002 9.96804 5.97202C10.184 6.14002 10.388 6.39202 10.58 6.72802L15.62 15.98L20.624 6.72802C20.816 6.39202 21.02 6.14002 21.236 5.97202C21.452 5.78002 21.788 5.68402 22.244 5.68402C22.772 5.68402 23.324 5.79202 23.9 6.00802C24.5 6.20002 25.004 6.46402 25.412 6.80002C25.844 7.13602 26.06 7.53202 26.06 7.98802C26.06 8.03602 26.06 8.09602 26.06 8.16802C26.06 8.24002 26.036 8.31202 25.988 8.38402L18.572 20.732C18.476 20.876 18.428 21.044 18.428 21.236V30.272C18.428 30.848 18.128 31.28 17.528 31.568C16.952 31.856 16.316 32 15.62 32Z"/>
<path d="M33.1402 32.36C31.6522 32.36 30.2842 32.012 29.0362 31.316C27.7882 30.596 26.7922 29.66 26.0482 28.508C25.3042 27.356 24.9322 26.12 24.9322 24.8V16.592C24.9322 16.16 25.2082 15.764 25.7602 15.404C26.3122 15.044 26.9722 14.864 27.7402 14.864C28.4842 14.864 29.1322 15.044 29.6842 15.404C30.2362 15.764 30.5122 16.16 30.5122 16.592V24.8C30.5122 25.256 30.6322 25.688 30.8722 26.096C31.1122 26.504 31.4242 26.84 31.8082 27.104C32.2162 27.368 32.6602 27.5 33.1402 27.5C33.6202 27.5 34.0522 27.368 34.4362 27.104C34.8442 26.84 35.1562 26.504 35.3722 26.096C35.6122 25.688 35.7322 25.256 35.7322 24.8V16.556C35.7322 16.1 36.0082 15.704 36.5602 15.368C37.1362 15.032 37.7962 14.864 38.5402 14.864C39.3562 14.864 40.0162 15.032 40.5202 15.368C41.0482 15.704 41.3122 16.1 41.3122 16.556V24.8C41.3122 26.144 40.9402 27.392 40.1962 28.544C39.4522 29.696 38.4562 30.62 37.2082 31.316C35.9842 32.012 34.6282 32.36 33.1402 32.36Z"/>
<path d="M47.1139 32C46.3219 32 45.6619 31.82 45.1339 31.46C44.6299 31.1 44.3779 30.704 44.3779 30.272V16.556C44.3779 16.052 44.6299 15.644 45.1339 15.332C45.6619 15.02 46.3219 14.864 47.1139 14.864C47.8099 14.864 48.3979 15.02 48.8779 15.332C49.3579 15.644 49.5979 16.052 49.5979 16.556V17.888C49.8379 17.36 50.1739 16.856 50.6059 16.376C51.0619 15.872 51.5659 15.464 52.1179 15.152C52.6939 14.816 53.2819 14.648 53.8819 14.648H54.9259C55.4539 14.648 55.9099 14.888 56.2939 15.368C56.7019 15.848 56.9059 16.412 56.9059 17.06C56.9059 17.732 56.7019 18.308 56.2939 18.788C55.9099 19.268 55.4539 19.508 54.9259 19.508H53.8819C53.2339 19.508 52.6099 19.736 52.0099 20.192C51.4099 20.624 50.9179 21.236 50.5339 22.028C50.1499 22.82 49.9579 23.768 49.9579 24.872V30.272C49.9579 30.704 49.6819 31.1 49.1299 31.46C48.5779 31.82 47.9059 32 47.1139 32Z"/>
<path d="M61.3178 11.552C60.5018 11.552 59.8058 11.288 59.2298 10.76C58.6538 10.232 58.3658 9.63202 58.3658 8.96002C58.3658 8.26402 58.6538 7.66402 59.2298 7.16002C59.8058 6.65602 60.5018 6.40402 61.3178 6.40402C62.1338 6.40402 62.8178 6.65602 63.3698 7.16002C63.9458 7.66402 64.2338 8.26402 64.2338 8.96002C64.2338 9.63202 63.9458 10.232 63.3698 10.76C62.8178 11.288 62.1338 11.552 61.3178 11.552ZM61.3178 32C60.5018 32 59.8298 31.82 59.3018 31.46C58.7978 31.1 58.5458 30.704 58.5458 30.272V16.556C58.5458 16.052 58.7978 15.644 59.3018 15.332C59.8298 15.02 60.5018 14.864 61.3178 14.864C62.0858 14.864 62.7458 15.02 63.2978 15.332C63.8498 15.644 64.1258 16.052 64.1258 16.556V30.272C64.1258 30.704 63.8498 31.1 63.2978 31.46C62.7458 31.82 62.0858 32 61.3178 32Z"/>
<path d="M73.3109 32.36C72.0629 32.36 70.9109 32.204 69.8549 31.892C68.8229 31.58 67.9949 31.172 67.3709 30.668C66.7709 30.164 66.4709 29.624 66.4709 29.048C66.4709 28.76 66.5429 28.424 66.6869 28.04C66.8549 27.656 67.0709 27.32 67.3349 27.032C67.6229 26.744 67.9469 26.6 68.3069 26.6C68.6909 26.6 69.0749 26.744 69.4589 27.032C69.8429 27.296 70.3109 27.56 70.8629 27.824C71.4389 28.088 72.2069 28.22 73.1669 28.22C74.1269 28.22 74.7389 28.088 75.0029 27.824C75.2669 27.536 75.3989 27.272 75.3989 27.032C75.3989 26.624 75.1949 26.312 74.7869 26.096C74.3789 25.856 73.8509 25.664 73.2029 25.52C72.5789 25.352 71.9069 25.172 71.1869 24.98C70.4669 24.764 69.7829 24.476 69.1349 24.116C68.5109 23.756 67.9949 23.264 67.5869 22.64C67.1789 22.016 66.9749 21.2 66.9749 20.192C66.9749 19.304 67.1789 18.44 67.5869 17.6C68.0189 16.736 68.7269 16.028 69.7109 15.476C70.6949 14.924 72.0389 14.648 73.7429 14.648C74.7989 14.648 75.7829 14.756 76.6949 14.972C77.6309 15.188 78.3869 15.5 78.9629 15.908C79.5629 16.292 79.8629 16.736 79.8629 17.24C79.8629 17.48 79.7789 17.816 79.6109 18.248C79.4669 18.656 79.2389 19.028 78.9269 19.364C78.6389 19.7 78.2789 19.868 77.8469 19.868C77.5349 19.868 77.1869 19.784 76.8029 19.616C76.4189 19.424 75.9869 19.244 75.5069 19.076C75.0269 18.884 74.4629 18.788 73.8149 18.788C73.3349 18.788 72.9389 18.848 72.6269 18.968C72.3389 19.088 72.1229 19.232 71.9789 19.4C71.8349 19.568 71.7629 19.748 71.7629 19.94C71.7629 20.276 71.9669 20.54 72.3749 20.732C72.7829 20.9 73.3109 21.068 73.9589 21.236C74.6069 21.38 75.2909 21.56 76.0109 21.776C76.7309 21.968 77.4149 22.268 78.0629 22.676C78.7109 23.06 79.2389 23.588 79.6469 24.26C80.0549 24.908 80.2589 25.76 80.2589 26.816C80.2589 28.496 79.6589 29.84 78.4589 30.848C77.2829 31.856 75.5669 32.36 73.3109 32.36Z"/>
<path d="M91.4445 32.216C89.8845 32.216 88.4445 31.94 87.1245 31.388C85.8045 30.836 84.7485 29.936 83.9565 28.688C83.1885 27.44 82.8045 25.784 82.8045 23.72V14.18C82.8045 12.116 83.1885 10.46 83.9565 9.21202C84.7485 7.96402 85.8045 7.06402 87.1245 6.51202C88.4445 5.96002 89.8845 5.68402 91.4445 5.68402C93.1725 5.68402 94.7085 5.97202 96.0525 6.54802C97.4205 7.10002 98.5005 7.90402 99.2925 8.96002C100.084 10.016 100.48 11.312 100.48 12.848C100.48 13.928 100.252 14.648 99.7965 15.008C99.3405 15.344 98.6325 15.512 97.6725 15.512C96.9285 15.512 96.2805 15.392 95.7285 15.152C95.2005 14.912 94.9125 14.468 94.8645 13.82C94.8645 13.58 94.8285 13.28 94.7565 12.92C94.7085 12.56 94.5885 12.2 94.3965 11.84C94.2045 11.48 93.8925 11.18 93.4605 10.94C93.0285 10.7 92.4285 10.58 91.6605 10.58C90.6285 10.58 89.8245 10.88 89.2485 11.48C88.6965 12.056 88.4205 12.956 88.4205 14.18V23.72C88.4205 24.944 88.7085 25.856 89.2845 26.456C89.8605 27.032 90.6645 27.32 91.6965 27.32C92.4165 27.32 92.9805 27.2 93.3885 26.96C93.8205 26.72 94.1325 26.42 94.3245 26.06C94.5165 25.676 94.6485 25.28 94.7205 24.872C94.7925 24.464 94.8405 24.08 94.8645 23.72C94.9125 23.048 95.2005 22.604 95.7285 22.388C96.2805 22.148 96.9165 22.028 97.6365 22.028C98.6205 22.028 99.3405 22.208 99.7965 22.568C100.252 22.904 100.48 23.612 100.48 24.692C100.48 26.276 100.084 27.632 99.2925 28.76C98.5005 29.888 97.4205 30.752 96.0525 31.352C94.7085 31.928 93.1725 32.216 91.4445 32.216Z"/>
<path d="M110.507 32.36C109.043 32.36 107.687 32.012 106.439 31.316C105.215 30.596 104.219 29.66 103.451 28.508C102.707 27.332 102.335 26.072 102.335 24.728V22.208C102.335 20.864 102.695 19.616 103.415 18.464C104.159 17.312 105.155 16.388 106.403 15.692C107.651 14.996 109.019 14.648 110.507 14.648C111.971 14.648 113.327 14.996 114.575 15.692C115.823 16.364 116.819 17.276 117.563 18.428C118.331 19.556 118.715 20.816 118.715 22.208V24.728C118.715 26.048 118.331 27.296 117.563 28.472C116.819 29.624 115.823 30.56 114.575 31.28C113.327 32 111.971 32.36 110.507 32.36ZM110.507 27.5C110.987 27.5 111.419 27.368 111.803 27.104C112.211 26.84 112.535 26.504 112.775 26.096C113.015 25.664 113.135 25.208 113.135 24.728V22.208C113.135 21.752 113.015 21.32 112.775 20.912C112.535 20.504 112.211 20.168 111.803 19.904C111.419 19.64 110.987 19.508 110.507 19.508C110.027 19.508 109.583 19.64 109.175 19.904C108.791 20.168 108.479 20.504 108.239 20.912C108.023 21.32 107.915 21.752 107.915 22.208V24.728C107.915 25.208 108.023 25.664 108.239 26.096C108.479 26.504 108.791 26.84 109.175 27.104C109.583 27.368 110.027 27.5 110.507 27.5Z"/>
<path d="M126.952 32.36C125.848 32.36 124.816 32 123.856 31.28C122.896 30.56 122.128 29.624 121.552 28.472C120.976 27.296 120.688 26.048 120.688 24.728V22.208C120.688 20.816 120.976 19.556 121.552 18.428C122.128 17.276 122.896 16.364 123.856 15.692C124.816 14.996 125.884 14.648 127.06 14.648C128.164 14.648 129.1 14.936 129.868 15.512C130.66 16.064 131.248 16.688 131.632 17.384V6.76402C131.632 6.26002 131.908 5.85202 132.46 5.54002C133.012 5.22802 133.684 5.07202 134.476 5.07202C135.268 5.07202 135.916 5.22802 136.42 5.54002C136.948 5.85202 137.212 6.26002 137.212 6.76402V30.272C137.212 30.704 136.948 31.1 136.42 31.46C135.916 31.82 135.268 32 134.476 32C133.804 32 133.216 31.82 132.712 31.46C132.232 31.1 131.992 30.704 131.992 30.272V29.48C131.632 30.224 130.984 30.896 130.048 31.496C129.136 32.072 128.104 32.36 126.952 32.36ZM128.86 27.5C129.388 27.5 129.856 27.356 130.264 27.068C130.672 26.756 130.996 26.42 131.236 26.06C131.5 25.676 131.632 25.388 131.632 25.196V22.208C131.632 21.632 131.488 21.152 131.2 20.768C130.936 20.36 130.588 20.048 130.156 19.832C129.748 19.616 129.328 19.508 128.896 19.508C128.416 19.508 127.972 19.64 127.564 19.904C127.156 20.168 126.832 20.504 126.592 20.912C126.376 21.32 126.268 21.752 126.268 22.208V24.728C126.268 25.184 126.376 25.628 126.592 26.06C126.832 26.492 127.144 26.84 127.528 27.104C127.936 27.368 128.38 27.5 128.86 27.5Z"/>
<path d="M143.267 11.552C142.451 11.552 141.755 11.288 141.179 10.76C140.603 10.232 140.315 9.63202 140.315 8.96002C140.315 8.26402 140.603 7.66402 141.179 7.16002C141.755 6.65602 142.451 6.40402 143.267 6.40402C144.083 6.40402 144.767 6.65602 145.319 7.16002C145.895 7.66402 146.183 8.26402 146.183 8.96002C146.183 9.63202 145.895 10.232 145.319 10.76C144.767 11.288 144.083 11.552 143.267 11.552ZM143.267 32C142.451 32 141.779 31.82 141.251 31.46C140.747 31.1 140.495 30.704 140.495 30.272V16.556C140.495 16.052 140.747 15.644 141.251 15.332C141.779 15.02 142.451 14.864 143.267 14.864C144.035 14.864 144.695 15.02 145.247 15.332C145.799 15.644 146.075 16.052 146.075 16.556V30.272C146.075 30.704 145.799 31.1 145.247 31.46C144.695 31.82 144.035 32 143.267 32Z"/>
<path d="M152.056 32C151.24 32 150.568 31.82 150.04 31.46C149.536 31.1 149.284 30.704 149.284 30.272V16.556C149.284 16.052 149.536 15.644 150.04 15.332C150.568 15.02 151.24 14.864 152.056 14.864C152.728 14.864 153.304 15.02 153.784 15.332C154.264 15.644 154.504 16.052 154.504 16.556V17.384C154.84 16.688 155.428 16.064 156.268 15.512C157.108 14.936 158.128 14.648 159.328 14.648C160.432 14.648 161.44 14.996 162.352 15.692C163.288 16.364 164.032 17.276 164.584 18.428C165.16 19.556 165.448 20.816 165.448 22.208V30.272C165.448 30.848 165.148 31.28 164.548 31.568C163.972 31.856 163.336 32 162.64 32C161.992 32 161.368 31.856 160.768 31.568C160.168 31.28 159.868 30.848 159.868 30.272V22.208C159.868 21.752 159.748 21.32 159.508 20.912C159.292 20.504 158.98 20.168 158.572 19.904C158.188 19.64 157.756 19.508 157.276 19.508C156.892 19.508 156.508 19.616 156.124 19.832C155.764 20.048 155.464 20.36 155.224 20.768C154.984 21.152 154.864 21.632 154.864 22.208V30.272C154.864 30.704 154.588 31.1 154.036 31.46C153.484 31.82 152.824 32 152.056 32Z"/>
<path d="M175.535 39.812C174.119 39.812 172.775 39.608 171.503 39.2C170.255 38.792 169.247 38.192 168.479 37.4C167.711 36.632 167.327 35.696 167.327 34.592C167.327 33.728 167.555 32.984 168.011 32.36C168.467 31.736 169.043 31.232 169.739 30.848C169.355 30.608 169.043 30.308 168.803 29.948C168.563 29.588 168.443 29.144 168.443 28.616C168.443 27.944 168.611 27.392 168.947 26.96C169.307 26.504 169.751 26.084 170.279 25.7C169.535 25.148 168.959 24.488 168.551 23.72C168.143 22.928 167.939 22.064 167.939 21.128V20.588C167.939 19.412 168.239 18.38 168.839 17.492C169.463 16.604 170.327 15.908 171.431 15.404C172.559 14.9 173.855 14.648 175.319 14.648C176.087 14.648 176.819 14.732 177.515 14.9C178.211 15.044 178.835 15.248 179.387 15.512C179.819 14.456 180.191 13.772 180.503 13.46C180.815 13.148 181.127 12.992 181.439 12.992C182.111 12.992 182.627 13.184 182.987 13.568C183.371 13.952 183.563 14.312 183.563 14.648C183.563 14.84 183.515 15.032 183.419 15.224C183.323 15.392 183.179 15.56 182.987 15.728C182.771 15.92 182.519 16.124 182.231 16.34C181.967 16.532 181.703 16.76 181.439 17.024C181.895 17.504 182.231 18.044 182.447 18.644C182.687 19.244 182.807 19.892 182.807 20.588V21.128C182.807 22.28 182.483 23.312 181.835 24.224C181.211 25.112 180.335 25.82 179.207 26.348C178.079 26.876 176.783 27.14 175.319 27.14C174.527 27.14 173.807 27.068 173.159 26.924C173.111 27.02 173.075 27.104 173.051 27.176C173.027 27.248 173.015 27.32 173.015 27.392C173.015 27.728 173.267 27.968 173.771 28.112C174.299 28.256 174.959 28.376 175.751 28.472C176.567 28.568 177.431 28.7 178.343 28.868C179.255 29.036 180.107 29.3 180.899 29.66C181.715 30.02 182.375 30.548 182.879 31.244C183.407 31.916 183.671 32.816 183.671 33.944C183.671 35.36 183.263 36.5 182.447 37.364C181.655 38.228 180.635 38.852 179.387 39.236C178.163 39.62 176.879 39.812 175.535 39.812ZM175.427 36.284C176.147 36.284 176.795 36.08 177.371 35.672C177.971 35.288 178.271 34.76 178.271 34.088C178.271 33.68 178.151 33.344 177.911 33.08C177.695 32.816 177.383 32.6 176.975 32.432C176.591 32.288 176.135 32.168 175.607 32.072C175.103 32 174.575 31.928 174.023 31.856C173.543 32.096 173.183 32.408 172.943 32.792C172.703 33.176 172.583 33.584 172.583 34.016C172.583 34.76 172.871 35.324 173.447 35.708C174.047 36.092 174.707 36.284 175.427 36.284ZM175.391 23.9C176.015 23.9 176.507 23.648 176.867 23.144C177.227 22.616 177.407 21.944 177.407 21.128V20.588C177.407 19.844 177.227 19.208 176.867 18.68C176.531 18.152 176.027 17.888 175.355 17.888C174.707 17.888 174.203 18.152 173.843 18.68C173.507 19.208 173.339 19.844 173.339 20.588V21.092C173.339 21.884 173.507 22.556 173.843 23.108C174.203 23.636 174.719 23.9 175.391 23.9Z"/>
<path d="M194.382 32.216C192.822 32.216 191.382 31.94 190.062 31.388C188.742 30.836 187.686 29.936 186.894 28.688C186.126 27.44 185.742 25.784 185.742 23.72V14.18C185.742 12.116 186.126 10.46 186.894 9.21202C187.686 7.96402 188.742 7.06402 190.062 6.51202C191.382 5.96002 192.822 5.68402 194.382 5.68402C196.11 5.68402 197.646 5.97202 198.99 6.54802C200.358 7.10002 201.438 7.90402 202.23 8.96002C203.022 10.016 203.418 11.312 203.418 12.848C203.418 13.928 203.19 14.648 202.734 15.008C202.278 15.344 201.57 15.512 200.61 15.512C199.866 15.512 199.218 15.392 198.666 15.152C198.138 14.912 197.85 14.468 197.802 13.82C197.802 13.58 197.766 13.28 197.694 12.92C197.646 12.56 197.526 12.2 197.334 11.84C197.142 11.48 196.83 11.18 196.398 10.94C195.966 10.7 195.366 10.58 194.598 10.58C193.566 10.58 192.762 10.88 192.186 11.48C191.634 12.056 191.358 12.956 191.358 14.18V23.72C191.358 24.944 191.646 25.856 192.222 26.456C192.798 27.032 193.602 27.32 194.634 27.32C195.354 27.32 195.918 27.2 196.326 26.96C196.758 26.72 197.07 26.42 197.262 26.06C197.454 25.676 197.586 25.28 197.658 24.872C197.73 24.464 197.778 24.08 197.802 23.72C197.85 23.048 198.138 22.604 198.666 22.388C199.218 22.148 199.854 22.028 200.574 22.028C201.558 22.028 202.278 22.208 202.734 22.568C203.19 22.904 203.418 23.612 203.418 24.692C203.418 26.276 203.022 27.632 202.23 28.76C201.438 29.888 200.358 30.752 198.99 31.352C197.646 31.928 196.11 32.216 194.382 32.216Z"/>
<path d="M209.017 32C208.201 32 207.529 31.82 207.001 31.46C206.497 31.1 206.245 30.704 206.245 30.272V6.76402C206.245 6.26002 206.497 5.85202 207.001 5.54002C207.529 5.22802 208.201 5.07202 209.017 5.07202C209.785 5.07202 210.445 5.22802 210.997 5.54002C211.549 5.85202 211.825 6.26002 211.825 6.76402V30.272C211.825 30.704 211.549 31.1 210.997 31.46C210.445 31.82 209.785 32 209.017 32Z"/>
<path d="M223.406 32.36C221.918 32.36 220.55 32.012 219.302 31.316C218.054 30.596 217.058 29.66 216.314 28.508C215.57 27.356 215.198 26.12 215.198 24.8V16.592C215.198 16.16 215.474 15.764 216.026 15.404C216.578 15.044 217.238 14.864 218.006 14.864C218.75 14.864 219.398 15.044 219.95 15.404C220.502 15.764 220.778 16.16 220.778 16.592V24.8C220.778 25.256 220.898 25.688 221.138 26.096C221.378 26.504 221.69 26.84 222.074 27.104C222.482 27.368 222.926 27.5 223.406 27.5C223.886 27.5 224.318 27.368 224.702 27.104C225.11 26.84 225.422 26.504 225.638 26.096C225.878 25.688 225.998 25.256 225.998 24.8V16.556C225.998 16.1 226.274 15.704 226.826 15.368C227.402 15.032 228.062 14.864 228.806 14.864C229.622 14.864 230.282 15.032 230.786 15.368C231.314 15.704 231.578 16.1 231.578 16.556V24.8C231.578 26.144 231.206 27.392 230.462 28.544C229.718 29.696 228.722 30.62 227.474 31.316C226.25 32.012 224.894 32.36 223.406 32.36Z"/>
<path d="M244.939 32.36C243.787 32.36 242.743 32.072 241.807 31.496C240.895 30.896 240.259 30.224 239.899 29.48V30.272C239.899 30.704 239.659 31.1 239.179 31.46C238.699 31.82 238.111 32 237.415 32C236.623 32 235.963 31.82 235.435 31.46C234.931 31.1 234.679 30.704 234.679 30.272V6.76402C234.679 6.26002 234.931 5.85202 235.435 5.54002C235.963 5.22802 236.623 5.07202 237.415 5.07202C238.207 5.07202 238.879 5.22802 239.431 5.54002C239.983 5.85202 240.259 6.26002 240.259 6.76402V17.384C240.643 16.688 241.219 16.064 241.987 15.512C242.779 14.936 243.727 14.648 244.831 14.648C246.007 14.648 247.075 14.996 248.035 15.692C248.995 16.364 249.763 17.276 250.339 18.428C250.915 19.556 251.203 20.816 251.203 22.208V24.728C251.203 26.048 250.915 27.296 250.339 28.472C249.763 29.624 248.995 30.56 248.035 31.28C247.099 32 246.067 32.36 244.939 32.36ZM243.031 27.5C243.511 27.5 243.943 27.368 244.327 27.104C244.735 26.84 245.047 26.492 245.263 26.06C245.503 25.628 245.623 25.184 245.623 24.728V22.208C245.623 21.752 245.503 21.32 245.263 20.912C245.047 20.504 244.735 20.168 244.327 19.904C243.943 19.64 243.499 19.508 242.995 19.508C242.563 19.508 242.131 19.616 241.699 19.832C241.291 20.048 240.943 20.36 240.655 20.768C240.391 21.152 240.259 21.632 240.259 22.208V25.196C240.259 25.388 240.379 25.676 240.619 26.06C240.883 26.42 241.219 26.756 241.627 27.068C242.059 27.356 242.527 27.5 243.031 27.5Z"/>
</mask>
<path d="M15.62 32C14.924 32 14.276 31.856 13.676 31.568C13.1 31.28 12.812 30.848 12.812 30.272V21.236C12.812 21.044 12.764 20.876 12.668 20.732L5.21604 8.38402C5.19204 8.31202 5.16804 8.24002 5.14404 8.16802C5.14404 8.09602 5.14404 8.03602 5.14404 7.98802C5.14404 7.53202 5.34804 7.13602 5.75604 6.80002C6.18804 6.46402 6.70404 6.20002 7.30404 6.00802C7.90404 5.79202 8.45604 5.68402 8.96004 5.68402C9.41604 5.68402 9.75204 5.78002 9.96804 5.97202C10.184 6.14002 10.388 6.39202 10.58 6.72802L15.62 15.98L20.624 6.72802C20.816 6.39202 21.02 6.14002 21.236 5.97202C21.452 5.78002 21.788 5.68402 22.244 5.68402C22.772 5.68402 23.324 5.79202 23.9 6.00802C24.5 6.20002 25.004 6.46402 25.412 6.80002C25.844 7.13602 26.06 7.53202 26.06 7.98802C26.06 8.03602 26.06 8.09602 26.06 8.16802C26.06 8.24002 26.036 8.31202 25.988 8.38402L18.572 20.732C18.476 20.876 18.428 21.044 18.428 21.236V30.272C18.428 30.848 18.128 31.28 17.528 31.568C16.952 31.856 16.316 32 15.62 32Z" fill="url(#paint0_linear_402_314)"/>
<path d="M33.1402 32.36C31.6522 32.36 30.2842 32.012 29.0362 31.316C27.7882 30.596 26.7922 29.66 26.0482 28.508C25.3042 27.356 24.9322 26.12 24.9322 24.8V16.592C24.9322 16.16 25.2082 15.764 25.7602 15.404C26.3122 15.044 26.9722 14.864 27.7402 14.864C28.4842 14.864 29.1322 15.044 29.6842 15.404C30.2362 15.764 30.5122 16.16 30.5122 16.592V24.8C30.5122 25.256 30.6322 25.688 30.8722 26.096C31.1122 26.504 31.4242 26.84 31.8082 27.104C32.2162 27.368 32.6602 27.5 33.1402 27.5C33.6202 27.5 34.0522 27.368 34.4362 27.104C34.8442 26.84 35.1562 26.504 35.3722 26.096C35.6122 25.688 35.7322 25.256 35.7322 24.8V16.556C35.7322 16.1 36.0082 15.704 36.5602 15.368C37.1362 15.032 37.7962 14.864 38.5402 14.864C39.3562 14.864 40.0162 15.032 40.5202 15.368C41.0482 15.704 41.3122 16.1 41.3122 16.556V24.8C41.3122 26.144 40.9402 27.392 40.1962 28.544C39.4522 29.696 38.4562 30.62 37.2082 31.316C35.9842 32.012 34.6282 32.36 33.1402 32.36Z" fill="url(#paint1_linear_402_314)"/>
<path d="M47.1139 32C46.3219 32 45.6619 31.82 45.1339 31.46C44.6299 31.1 44.3779 30.704 44.3779 30.272V16.556C44.3779 16.052 44.6299 15.644 45.1339 15.332C45.6619 15.02 46.3219 14.864 47.1139 14.864C47.8099 14.864 48.3979 15.02 48.8779 15.332C49.3579 15.644 49.5979 16.052 49.5979 16.556V17.888C49.8379 17.36 50.1739 16.856 50.6059 16.376C51.0619 15.872 51.5659 15.464 52.1179 15.152C52.6939 14.816 53.2819 14.648 53.8819 14.648H54.9259C55.4539 14.648 55.9099 14.888 56.2939 15.368C56.7019 15.848 56.9059 16.412 56.9059 17.06C56.9059 17.732 56.7019 18.308 56.2939 18.788C55.9099 19.268 55.4539 19.508 54.9259 19.508H53.8819C53.2339 19.508 52.6099 19.736 52.0099 20.192C51.4099 20.624 50.9179 21.236 50.5339 22.028C50.1499 22.82 49.9579 23.768 49.9579 24.872V30.272C49.9579 30.704 49.6819 31.1 49.1299 31.46C48.5779 31.82 47.9059 32 47.1139 32Z" fill="url(#paint2_linear_402_314)"/>
<path d="M61.3178 11.552C60.5018 11.552 59.8058 11.288 59.2298 10.76C58.6538 10.232 58.3658 9.63202 58.3658 8.96002C58.3658 8.26402 58.6538 7.66402 59.2298 7.16002C59.8058 6.65602 60.5018 6.40402 61.3178 6.40402C62.1338 6.40402 62.8178 6.65602 63.3698 7.16002C63.9458 7.66402 64.2338 8.26402 64.2338 8.96002C64.2338 9.63202 63.9458 10.232 63.3698 10.76C62.8178 11.288 62.1338 11.552 61.3178 11.552ZM61.3178 32C60.5018 32 59.8298 31.82 59.3018 31.46C58.7978 31.1 58.5458 30.704 58.5458 30.272V16.556C58.5458 16.052 58.7978 15.644 59.3018 15.332C59.8298 15.02 60.5018 14.864 61.3178 14.864C62.0858 14.864 62.7458 15.02 63.2978 15.332C63.8498 15.644 64.1258 16.052 64.1258 16.556V30.272C64.1258 30.704 63.8498 31.1 63.2978 31.46C62.7458 31.82 62.0858 32 61.3178 32Z" fill="url(#paint3_linear_402_314)"/>
<path d="M73.3109 32.36C72.0629 32.36 70.9109 32.204 69.8549 31.892C68.8229 31.58 67.9949 31.172 67.3709 30.668C66.7709 30.164 66.4709 29.624 66.4709 29.048C66.4709 28.76 66.5429 28.424 66.6869 28.04C66.8549 27.656 67.0709 27.32 67.3349 27.032C67.6229 26.744 67.9469 26.6 68.3069 26.6C68.6909 26.6 69.0749 26.744 69.4589 27.032C69.8429 27.296 70.3109 27.56 70.8629 27.824C71.4389 28.088 72.2069 28.22 73.1669 28.22C74.1269 28.22 74.7389 28.088 75.0029 27.824C75.2669 27.536 75.3989 27.272 75.3989 27.032C75.3989 26.624 75.1949 26.312 74.7869 26.096C74.3789 25.856 73.8509 25.664 73.2029 25.52C72.5789 25.352 71.9069 25.172 71.1869 24.98C70.4669 24.764 69.7829 24.476 69.1349 24.116C68.5109 23.756 67.9949 23.264 67.5869 22.64C67.1789 22.016 66.9749 21.2 66.9749 20.192C66.9749 19.304 67.1789 18.44 67.5869 17.6C68.0189 16.736 68.7269 16.028 69.7109 15.476C70.6949 14.924 72.0389 14.648 73.7429 14.648C74.7989 14.648 75.7829 14.756 76.6949 14.972C77.6309 15.188 78.3869 15.5 78.9629 15.908C79.5629 16.292 79.8629 16.736 79.8629 17.24C79.8629 17.48 79.7789 17.816 79.6109 18.248C79.4669 18.656 79.2389 19.028 78.9269 19.364C78.6389 19.7 78.2789 19.868 77.8469 19.868C77.5349 19.868 77.1869 19.784 76.8029 19.616C76.4189 19.424 75.9869 19.244 75.5069 19.076C75.0269 18.884 74.4629 18.788 73.8149 18.788C73.3349 18.788 72.9389 18.848 72.6269 18.968C72.3389 19.088 72.1229 19.232 71.9789 19.4C71.8349 19.568 71.7629 19.748 71.7629 19.94C71.7629 20.276 71.9669 20.54 72.3749 20.732C72.7829 20.9 73.3109 21.068 73.9589 21.236C74.6069 21.38 75.2909 21.56 76.0109 21.776C76.7309 21.968 77.4149 22.268 78.0629 22.676C78.7109 23.06 79.2389 23.588 79.6469 24.26C80.0549 24.908 80.2589 25.76 80.2589 26.816C80.2589 28.496 79.6589 29.84 78.4589 30.848C77.2829 31.856 75.5669 32.36 73.3109 32.36Z" fill="url(#paint4_linear_402_314)"/>
<path d="M91.4445 32.216C89.8845 32.216 88.4445 31.94 87.1245 31.388C85.8045 30.836 84.7485 29.936 83.9565 28.688C83.1885 27.44 82.8045 25.784 82.8045 23.72V14.18C82.8045 12.116 83.1885 10.46 83.9565 9.21202C84.7485 7.96402 85.8045 7.06402 87.1245 6.51202C88.4445 5.96002 89.8845 5.68402 91.4445 5.68402C93.1725 5.68402 94.7085 5.97202 96.0525 6.54802C97.4205 7.10002 98.5005 7.90402 99.2925 8.96002C100.084 10.016 100.48 11.312 100.48 12.848C100.48 13.928 100.252 14.648 99.7965 15.008C99.3405 15.344 98.6325 15.512 97.6725 15.512C96.9285 15.512 96.2805 15.392 95.7285 15.152C95.2005 14.912 94.9125 14.468 94.8645 13.82C94.8645 13.58 94.8285 13.28 94.7565 12.92C94.7085 12.56 94.5885 12.2 94.3965 11.84C94.2045 11.48 93.8925 11.18 93.4605 10.94C93.0285 10.7 92.4285 10.58 91.6605 10.58C90.6285 10.58 89.8245 10.88 89.2485 11.48C88.6965 12.056 88.4205 12.956 88.4205 14.18V23.72C88.4205 24.944 88.7085 25.856 89.2845 26.456C89.8605 27.032 90.6645 27.32 91.6965 27.32C92.4165 27.32 92.9805 27.2 93.3885 26.96C93.8205 26.72 94.1325 26.42 94.3245 26.06C94.5165 25.676 94.6485 25.28 94.7205 24.872C94.7925 24.464 94.8405 24.08 94.8645 23.72C94.9125 23.048 95.2005 22.604 95.7285 22.388C96.2805 22.148 96.9165 22.028 97.6365 22.028C98.6205 22.028 99.3405 22.208 99.7965 22.568C100.252 22.904 100.48 23.612 100.48 24.692C100.48 26.276 100.084 27.632 99.2925 28.76C98.5005 29.888 97.4205 30.752 96.0525 31.352C94.7085 31.928 93.1725 32.216 91.4445 32.216Z" fill="url(#paint5_linear_402_314)"/>
<path d="M110.507 32.36C109.043 32.36 107.687 32.012 106.439 31.316C105.215 30.596 104.219 29.66 103.451 28.508C102.707 27.332 102.335 26.072 102.335 24.728V22.208C102.335 20.864 102.695 19.616 103.415 18.464C104.159 17.312 105.155 16.388 106.403 15.692C107.651 14.996 109.019 14.648 110.507 14.648C111.971 14.648 113.327 14.996 114.575 15.692C115.823 16.364 116.819 17.276 117.563 18.428C118.331 19.556 118.715 20.816 118.715 22.208V24.728C118.715 26.048 118.331 27.296 117.563 28.472C116.819 29.624 115.823 30.56 114.575 31.28C113.327 32 111.971 32.36 110.507 32.36ZM110.507 27.5C110.987 27.5 111.419 27.368 111.803 27.104C112.211 26.84 112.535 26.504 112.775 26.096C113.015 25.664 113.135 25.208 113.135 24.728V22.208C113.135 21.752 113.015 21.32 112.775 20.912C112.535 20.504 112.211 20.168 111.803 19.904C111.419 19.64 110.987 19.508 110.507 19.508C110.027 19.508 109.583 19.64 109.175 19.904C108.791 20.168 108.479 20.504 108.239 20.912C108.023 21.32 107.915 21.752 107.915 22.208V24.728C107.915 25.208 108.023 25.664 108.239 26.096C108.479 26.504 108.791 26.84 109.175 27.104C109.583 27.368 110.027 27.5 110.507 27.5Z" fill="url(#paint6_linear_402_314)"/>
<path d="M126.952 32.36C125.848 32.36 124.816 32 123.856 31.28C122.896 30.56 122.128 29.624 121.552 28.472C120.976 27.296 120.688 26.048 120.688 24.728V22.208C120.688 20.816 120.976 19.556 121.552 18.428C122.128 17.276 122.896 16.364 123.856 15.692C124.816 14.996 125.884 14.648 127.06 14.648C128.164 14.648 129.1 14.936 129.868 15.512C130.66 16.064 131.248 16.688 131.632 17.384V6.76402C131.632 6.26002 131.908 5.85202 132.46 5.54002C133.012 5.22802 133.684 5.07202 134.476 5.07202C135.268 5.07202 135.916 5.22802 136.42 5.54002C136.948 5.85202 137.212 6.26002 137.212 6.76402V30.272C137.212 30.704 136.948 31.1 136.42 31.46C135.916 31.82 135.268 32 134.476 32C133.804 32 133.216 31.82 132.712 31.46C132.232 31.1 131.992 30.704 131.992 30.272V29.48C131.632 30.224 130.984 30.896 130.048 31.496C129.136 32.072 128.104 32.36 126.952 32.36ZM128.86 27.5C129.388 27.5 129.856 27.356 130.264 27.068C130.672 26.756 130.996 26.42 131.236 26.06C131.5 25.676 131.632 25.388 131.632 25.196V22.208C131.632 21.632 131.488 21.152 131.2 20.768C130.936 20.36 130.588 20.048 130.156 19.832C129.748 19.616 129.328 19.508 128.896 19.508C128.416 19.508 127.972 19.64 127.564 19.904C127.156 20.168 126.832 20.504 126.592 20.912C126.376 21.32 126.268 21.752 126.268 22.208V24.728C126.268 25.184 126.376 25.628 126.592 26.06C126.832 26.492 127.144 26.84 127.528 27.104C127.936 27.368 128.38 27.5 128.86 27.5Z" fill="url(#paint7_linear_402_314)"/>
<path d="M143.267 11.552C142.451 11.552 141.755 11.288 141.179 10.76C140.603 10.232 140.315 9.63202 140.315 8.96002C140.315 8.26402 140.603 7.66402 141.179 7.16002C141.755 6.65602 142.451 6.40402 143.267 6.40402C144.083 6.40402 144.767 6.65602 145.319 7.16002C145.895 7.66402 146.183 8.26402 146.183 8.96002C146.183 9.63202 145.895 10.232 145.319 10.76C144.767 11.288 144.083 11.552 143.267 11.552ZM143.267 32C142.451 32 141.779 31.82 141.251 31.46C140.747 31.1 140.495 30.704 140.495 30.272V16.556C140.495 16.052 140.747 15.644 141.251 15.332C141.779 15.02 142.451 14.864 143.267 14.864C144.035 14.864 144.695 15.02 145.247 15.332C145.799 15.644 146.075 16.052 146.075 16.556V30.272C146.075 30.704 145.799 31.1 145.247 31.46C144.695 31.82 144.035 32 143.267 32Z" fill="url(#paint8_linear_402_314)"/>
<path d="M152.056 32C151.24 32 150.568 31.82 150.04 31.46C149.536 31.1 149.284 30.704 149.284 30.272V16.556C149.284 16.052 149.536 15.644 150.04 15.332C150.568 15.02 151.24 14.864 152.056 14.864C152.728 14.864 153.304 15.02 153.784 15.332C154.264 15.644 154.504 16.052 154.504 16.556V17.384C154.84 16.688 155.428 16.064 156.268 15.512C157.108 14.936 158.128 14.648 159.328 14.648C160.432 14.648 161.44 14.996 162.352 15.692C163.288 16.364 164.032 17.276 164.584 18.428C165.16 19.556 165.448 20.816 165.448 22.208V30.272C165.448 30.848 165.148 31.28 164.548 31.568C163.972 31.856 163.336 32 162.64 32C161.992 32 161.368 31.856 160.768 31.568C160.168 31.28 159.868 30.848 159.868 30.272V22.208C159.868 21.752 159.748 21.32 159.508 20.912C159.292 20.504 158.98 20.168 158.572 19.904C158.188 19.64 157.756 19.508 157.276 19.508C156.892 19.508 156.508 19.616 156.124 19.832C155.764 20.048 155.464 20.36 155.224 20.768C154.984 21.152 154.864 21.632 154.864 22.208V30.272C154.864 30.704 154.588 31.1 154.036 31.46C153.484 31.82 152.824 32 152.056 32Z" fill="url(#paint9_linear_402_314)"/>
<path d="M175.535 39.812C174.119 39.812 172.775 39.608 171.503 39.2C170.255 38.792 169.247 38.192 168.479 37.4C167.711 36.632 167.327 35.696 167.327 34.592C167.327 33.728 167.555 32.984 168.011 32.36C168.467 31.736 169.043 31.232 169.739 30.848C169.355 30.608 169.043 30.308 168.803 29.948C168.563 29.588 168.443 29.144 168.443 28.616C168.443 27.944 168.611 27.392 168.947 26.96C169.307 26.504 169.751 26.084 170.279 25.7C169.535 25.148 168.959 24.488 168.551 23.72C168.143 22.928 167.939 22.064 167.939 21.128V20.588C167.939 19.412 168.239 18.38 168.839 17.492C169.463 16.604 170.327 15.908 171.431 15.404C172.559 14.9 173.855 14.648 175.319 14.648C176.087 14.648 176.819 14.732 177.515 14.9C178.211 15.044 178.835 15.248 179.387 15.512C179.819 14.456 180.191 13.772 180.503 13.46C180.815 13.148 181.127 12.992 181.439 12.992C182.111 12.992 182.627 13.184 182.987 13.568C183.371 13.952 183.563 14.312 183.563 14.648C183.563 14.84 183.515 15.032 183.419 15.224C183.323 15.392 183.179 15.56 182.987 15.728C182.771 15.92 182.519 16.124 182.231 16.34C181.967 16.532 181.703 16.76 181.439 17.024C181.895 17.504 182.231 18.044 182.447 18.644C182.687 19.244 182.807 19.892 182.807 20.588V21.128C182.807 22.28 182.483 23.312 181.835 24.224C181.211 25.112 180.335 25.82 179.207 26.348C178.079 26.876 176.783 27.14 175.319 27.14C174.527 27.14 173.807 27.068 173.159 26.924C173.111 27.02 173.075 27.104 173.051 27.176C173.027 27.248 173.015 27.32 173.015 27.392C173.015 27.728 173.267 27.968 173.771 28.112C174.299 28.256 174.959 28.376 175.751 28.472C176.567 28.568 177.431 28.7 178.343 28.868C179.255 29.036 180.107 29.3 180.899 29.66C181.715 30.02 182.375 30.548 182.879 31.244C183.407 31.916 183.671 32.816 183.671 33.944C183.671 35.36 183.263 36.5 182.447 37.364C181.655 38.228 180.635 38.852 179.387 39.236C178.163 39.62 176.879 39.812 175.535 39.812ZM175.427 36.284C176.147 36.284 176.795 36.08 177.371 35.672C177.971 35.288 178.271 34.76 178.271 34.088C178.271 33.68 178.151 33.344 177.911 33.08C177.695 32.816 177.383 32.6 176.975 32.432C176.591 32.288 176.135 32.168 175.607 32.072C175.103 32 174.575 31.928 174.023 31.856C173.543 32.096 173.183 32.408 172.943 32.792C172.703 33.176 172.583 33.584 172.583 34.016C172.583 34.76 172.871 35.324 173.447 35.708C174.047 36.092 174.707 36.284 175.427 36.284ZM175.391 23.9C176.015 23.9 176.507 23.648 176.867 23.144C177.227 22.616 177.407 21.944 177.407 21.128V20.588C177.407 19.844 177.227 19.208 176.867 18.68C176.531 18.152 176.027 17.888 175.355 17.888C174.707 17.888 174.203 18.152 173.843 18.68C173.507 19.208 173.339 19.844 173.339 20.588V21.092C173.339 21.884 173.507 22.556 173.843 23.108C174.203 23.636 174.719 23.9 175.391 23.9Z" fill="url(#paint10_linear_402_314)"/>
<path d="M194.382 32.216C192.822 32.216 191.382 31.94 190.062 31.388C188.742 30.836 187.686 29.936 186.894 28.688C186.126 27.44 185.742 25.784 185.742 23.72V14.18C185.742 12.116 186.126 10.46 186.894 9.21202C187.686 7.96402 188.742 7.06402 190.062 6.51202C191.382 5.96002 192.822 5.68402 194.382 5.68402C196.11 5.68402 197.646 5.97202 198.99 6.54802C200.358 7.10002 201.438 7.90402 202.23 8.96002C203.022 10.016 203.418 11.312 203.418 12.848C203.418 13.928 203.19 14.648 202.734 15.008C202.278 15.344 201.57 15.512 200.61 15.512C199.866 15.512 199.218 15.392 198.666 15.152C198.138 14.912 197.85 14.468 197.802 13.82C197.802 13.58 197.766 13.28 197.694 12.92C197.646 12.56 197.526 12.2 197.334 11.84C197.142 11.48 196.83 11.18 196.398 10.94C195.966 10.7 195.366 10.58 194.598 10.58C193.566 10.58 192.762 10.88 192.186 11.48C191.634 12.056 191.358 12.956 191.358 14.18V23.72C191.358 24.944 191.646 25.856 192.222 26.456C192.798 27.032 193.602 27.32 194.634 27.32C195.354 27.32 195.918 27.2 196.326 26.96C196.758 26.72 197.07 26.42 197.262 26.06C197.454 25.676 197.586 25.28 197.658 24.872C197.73 24.464 197.778 24.08 197.802 23.72C197.85 23.048 198.138 22.604 198.666 22.388C199.218 22.148 199.854 22.028 200.574 22.028C201.558 22.028 202.278 22.208 202.734 22.568C203.19 22.904 203.418 23.612 203.418 24.692C203.418 26.276 203.022 27.632 202.23 28.76C201.438 29.888 200.358 30.752 198.99 31.352C197.646 31.928 196.11 32.216 194.382 32.216Z" fill="url(#paint11_linear_402_314)"/>
<path d="M209.017 32C208.201 32 207.529 31.82 207.001 31.46C206.497 31.1 206.245 30.704 206.245 30.272V6.76402C206.245 6.26002 206.497 5.85202 207.001 5.54002C207.529 5.22802 208.201 5.07202 209.017 5.07202C209.785 5.07202 210.445 5.22802 210.997 5.54002C211.549 5.85202 211.825 6.26002 211.825 6.76402V30.272C211.825 30.704 211.549 31.1 210.997 31.46C210.445 31.82 209.785 32 209.017 32Z" fill="url(#paint12_linear_402_314)"/>
<path d="M223.406 32.36C221.918 32.36 220.55 32.012 219.302 31.316C218.054 30.596 217.058 29.66 216.314 28.508C215.57 27.356 215.198 26.12 215.198 24.8V16.592C215.198 16.16 215.474 15.764 216.026 15.404C216.578 15.044 217.238 14.864 218.006 14.864C218.75 14.864 219.398 15.044 219.95 15.404C220.502 15.764 220.778 16.16 220.778 16.592V24.8C220.778 25.256 220.898 25.688 221.138 26.096C221.378 26.504 221.69 26.84 222.074 27.104C222.482 27.368 222.926 27.5 223.406 27.5C223.886 27.5 224.318 27.368 224.702 27.104C225.11 26.84 225.422 26.504 225.638 26.096C225.878 25.688 225.998 25.256 225.998 24.8V16.556C225.998 16.1 226.274 15.704 226.826 15.368C227.402 15.032 228.062 14.864 228.806 14.864C229.622 14.864 230.282 15.032 230.786 15.368C231.314 15.704 231.578 16.1 231.578 16.556V24.8C231.578 26.144 231.206 27.392 230.462 28.544C229.718 29.696 228.722 30.62 227.474 31.316C226.25 32.012 224.894 32.36 223.406 32.36Z" fill="url(#paint13_linear_402_314)"/>
<path d="M244.939 32.36C243.787 32.36 242.743 32.072 241.807 31.496C240.895 30.896 240.259 30.224 239.899 29.48V30.272C239.899 30.704 239.659 31.1 239.179 31.46C238.699 31.82 238.111 32 237.415 32C236.623 32 235.963 31.82 235.435 31.46C234.931 31.1 234.679 30.704 234.679 30.272V6.76402C234.679 6.26002 234.931 5.85202 235.435 5.54002C235.963 5.22802 236.623 5.07202 237.415 5.07202C238.207 5.07202 238.879 5.22802 239.431 5.54002C239.983 5.85202 240.259 6.26002 240.259 6.76402V17.384C240.643 16.688 241.219 16.064 241.987 15.512C242.779 14.936 243.727 14.648 244.831 14.648C246.007 14.648 247.075 14.996 248.035 15.692C248.995 16.364 249.763 17.276 250.339 18.428C250.915 19.556 251.203 20.816 251.203 22.208V24.728C251.203 26.048 250.915 27.296 250.339 28.472C249.763 29.624 248.995 30.56 248.035 31.28C247.099 32 246.067 32.36 244.939 32.36ZM243.031 27.5C243.511 27.5 243.943 27.368 244.327 27.104C244.735 26.84 245.047 26.492 245.263 26.06C245.503 25.628 245.623 25.184 245.623 24.728V22.208C245.623 21.752 245.503 21.32 245.263 20.912C245.047 20.504 244.735 20.168 244.327 19.904C243.943 19.64 243.499 19.508 242.995 19.508C242.563 19.508 242.131 19.616 241.699 19.832C241.291 20.048 240.943 20.36 240.655 20.768C240.391 21.152 240.259 21.632 240.259 22.208V25.196C240.259 25.388 240.379 25.676 240.619 26.06C240.883 26.42 241.219 26.756 241.627 27.068C242.059 27.356 242.527 27.5 243.031 27.5Z" fill="url(#paint14_linear_402_314)"/>
<path d="M15.62 32C14.924 32 14.276 31.856 13.676 31.568C13.1 31.28 12.812 30.848 12.812 30.272V21.236C12.812 21.044 12.764 20.876 12.668 20.732L5.21604 8.38402C5.19204 8.31202 5.16804 8.24002 5.14404 8.16802C5.14404 8.09602 5.14404 8.03602 5.14404 7.98802C5.14404 7.53202 5.34804 7.13602 5.75604 6.80002C6.18804 6.46402 6.70404 6.20002 7.30404 6.00802C7.90404 5.79202 8.45604 5.68402 8.96004 5.68402C9.41604 5.68402 9.75204 5.78002 9.96804 5.97202C10.184 6.14002 10.388 6.39202 10.58 6.72802L15.62 15.98L20.624 6.72802C20.816 6.39202 21.02 6.14002 21.236 5.97202C21.452 5.78002 21.788 5.68402 22.244 5.68402C22.772 5.68402 23.324 5.79202 23.9 6.00802C24.5 6.20002 25.004 6.46402 25.412 6.80002C25.844 7.13602 26.06 7.53202 26.06 7.98802C26.06 8.03602 26.06 8.09602 26.06 8.16802C26.06 8.24002 26.036 8.31202 25.988 8.38402L18.572 20.732C18.476 20.876 18.428 21.044 18.428 21.236V30.272C18.428 30.848 18.128 31.28 17.528 31.568C16.952 31.856 16.316 32 15.62 32Z" stroke="black" stroke-width="2" mask="url(#path-1-outside-1_402_314)"/>
<path d="M33.1402 32.36C31.6522 32.36 30.2842 32.012 29.0362 31.316C27.7882 30.596 26.7922 29.66 26.0482 28.508C25.3042 27.356 24.9322 26.12 24.9322 24.8V16.592C24.9322 16.16 25.2082 15.764 25.7602 15.404C26.3122 15.044 26.9722 14.864 27.7402 14.864C28.4842 14.864 29.1322 15.044 29.6842 15.404C30.2362 15.764 30.5122 16.16 30.5122 16.592V24.8C30.5122 25.256 30.6322 25.688 30.8722 26.096C31.1122 26.504 31.4242 26.84 31.8082 27.104C32.2162 27.368 32.6602 27.5 33.1402 27.5C33.6202 27.5 34.0522 27.368 34.4362 27.104C34.8442 26.84 35.1562 26.504 35.3722 26.096C35.6122 25.688 35.7322 25.256 35.7322 24.8V16.556C35.7322 16.1 36.0082 15.704 36.5602 15.368C37.1362 15.032 37.7962 14.864 38.5402 14.864C39.3562 14.864 40.0162 15.032 40.5202 15.368C41.0482 15.704 41.3122 16.1 41.3122 16.556V24.8C41.3122 26.144 40.9402 27.392 40.1962 28.544C39.4522 29.696 38.4562 30.62 37.2082 31.316C35.9842 32.012 34.6282 32.36 33.1402 32.36Z" stroke="black" stroke-width="2" mask="url(#path-1-outside-1_402_314)"/>
<path d="M47.1139 32C46.3219 32 45.6619 31.82 45.1339 31.46C44.6299 31.1 44.3779 30.704 44.3779 30.272V16.556C44.3779 16.052 44.6299 15.644 45.1339 15.332C45.6619 15.02 46.3219 14.864 47.1139 14.864C47.8099 14.864 48.3979 15.02 48.8779 15.332C49.3579 15.644 49.5979 16.052 49.5979 16.556V17.888C49.8379 17.36 50.1739 16.856 50.6059 16.376C51.0619 15.872 51.5659 15.464 52.1179 15.152C52.6939 14.816 53.2819 14.648 53.8819 14.648H54.9259C55.4539 14.648 55.9099 14.888 56.2939 15.368C56.7019 15.848 56.9059 16.412 56.9059 17.06C56.9059 17.732 56.7019 18.308 56.2939 18.788C55.9099 19.268 55.4539 19.508 54.9259 19.508H53.8819C53.2339 19.508 52.6099 19.736 52.0099 20.192C51.4099 20.624 50.9179 21.236 50.5339 22.028C50.1499 22.82 49.9579 23.768 49.9579 24.872V30.272C49.9579 30.704 49.6819 31.1 49.1299 31.46C48.5779 31.82 47.9059 32 47.1139 32Z" stroke="black" stroke-width="2" mask="url(#path-1-outside-1_402_314)"/>
<path d="M61.3178 11.552C60.5018 11.552 59.8058 11.288 59.2298 10.76C58.6538 10.232 58.3658 9.63202 58.3658 8.96002C58.3658 8.26402 58.6538 7.66402 59.2298 7.16002C59.8058 6.65602 60.5018 6.40402 61.3178 6.40402C62.1338 6.40402 62.8178 6.65602 63.3698 7.16002C63.9458 7.66402 64.2338 8.26402 64.2338 8.96002C64.2338 9.63202 63.9458 10.232 63.3698 10.76C62.8178 11.288 62.1338 11.552 61.3178 11.552ZM61.3178 32C60.5018 32 59.8298 31.82 59.3018 31.46C58.7978 31.1 58.5458 30.704 58.5458 30.272V16.556C58.5458 16.052 58.7978 15.644 59.3018 15.332C59.8298 15.02 60.5018 14.864 61.3178 14.864C62.0858 14.864 62.7458 15.02 63.2978 15.332C63.8498 15.644 64.1258 16.052 64.1258 16.556V30.272C64.1258 30.704 63.8498 31.1 63.2978 31.46C62.7458 31.82 62.0858 32 61.3178 32Z" stroke="black" stroke-width="2" mask="url(#path-1-outside-1_402_314)"/>
<path d="M73.3109 32.36C72.0629 32.36 70.9109 32.204 69.8549 31.892C68.8229 31.58 67.9949 31.172 67.3709 30.668C66.7709 30.164 66.4709 29.624 66.4709 29.048C66.4709 28.76 66.5429 28.424 66.6869 28.04C66.8549 27.656 67.0709 27.32 67.3349 27.032C67.6229 26.744 67.9469 26.6 68.3069 26.6C68.6909 26.6 69.0749 26.744 69.4589 27.032C69.8429 27.296 70.3109 27.56 70.8629 27.824C71.4389 28.088 72.2069 28.22 73.1669 28.22C74.1269 28.22 74.7389 28.088 75.0029 27.824C75.2669 27.536 75.3989 27.272 75.3989 27.032C75.3989 26.624 75.1949 26.312 74.7869 26.096C74.3789 25.856 73.8509 25.664 73.2029 25.52C72.5789 25.352 71.9069 25.172 71.1869 24.98C70.4669 24.764 69.7829 24.476 69.1349 24.116C68.5109 23.756 67.9949 23.264 67.5869 22.64C67.1789 22.016 66.9749 21.2 66.9749 20.192C66.9749 19.304 67.1789 18.44 67.5869 17.6C68.0189 16.736 68.7269 16.028 69.7109 15.476C70.6949 14.924 72.0389 14.648 73.7429 14.648C74.7989 14.648 75.7829 14.756 76.6949 14.972C77.6309 15.188 78.3869 15.5 78.9629 15.908C79.5629 16.292 79.8629 16.736 79.8629 17.24C79.8629 17.48 79.7789 17.816 79.6109 18.248C79.4669 18.656 79.2389 19.028 78.9269 19.364C78.6389 19.7 78.2789 19.868 77.8469 19.868C77.5349 19.868 77.1869 19.784 76.8029 19.616C76.4189 19.424 75.9869 19.244 75.5069 19.076C75.0269 18.884 74.4629 18.788 73.8149 18.788C73.3349 18.788 72.9389 18.848 72.6269 18.968C72.3389 19.088 72.1229 19.232 71.9789 19.4C71.8349 19.568 71.7629 19.748 71.7629 19.94C71.7629 20.276 71.9669 20.54 72.3749 20.732C72.7829 20.9 73.3109 21.068 73.9589 21.236C74.6069 21.38 75.2909 21.56 76.0109 21.776C76.7309 21.968 77.4149 22.268 78.0629 22.676C78.7109 23.06 79.2389 23.588 79.6469 24.26C80.0549 24.908 80.2589 25.76 80.2589 26.816C80.2589 28.496 79.6589 29.84 78.4589 30.848C77.2829 31.856 75.5669 32.36 73.3109 32.36Z" stroke="black" stroke-width="2" mask="url(#path-1-outside-1_402_314)"/>
<path d="M91.4445 32.216C89.8845 32.216 88.4445 31.94 87.1245 31.388C85.8045 30.836 84.7485 29.936 83.9565 28.688C83.1885 27.44 82.8045 25.784 82.8045 23.72V14.18C82.8045 12.116 83.1885 10.46 83.9565 9.21202C84.7485 7.96402 85.8045 7.06402 87.1245 6.51202C88.4445 5.96002 89.8845 5.68402 91.4445 5.68402C93.1725 5.68402 94.7085 5.97202 96.0525 6.54802C97.4205 7.10002 98.5005 7.90402 99.2925 8.96002C100.084 10.016 100.48 11.312 100.48 12.848C100.48 13.928 100.252 14.648 99.7965 15.008C99.3405 15.344 98.6325 15.512 97.6725 15.512C96.9285 15.512 96.2805 15.392 95.7285 15.152C95.2005 14.912 94.9125 14.468 94.8645 13.82C94.8645 13.58 94.8285 13.28 94.7565 12.92C94.7085 12.56 94.5885 12.2 94.3965 11.84C94.2045 11.48 93.8925 11.18 93.4605 10.94C93.0285 10.7 92.4285 10.58 91.6605 10.58C90.6285 10.58 89.8245 10.88 89.2485 11.48C88.6965 12.056 88.4205 12.956 88.4205 14.18V23.72C88.4205 24.944 88.7085 25.856 89.2845 26.456C89.8605 27.032 90.6645 27.32 91.6965 27.32C92.4165 27.32 92.9805 27.2 93.3885 26.96C93.8205 26.72 94.1325 26.42 94.3245 26.06C94.5165 25.676 94.6485 25.28 94.7205 24.872C94.7925 24.464 94.8405 24.08 94.8645 23.72C94.9125 23.048 95.2005 22.604 95.7285 22.388C96.2805 22.148 96.9165 22.028 97.6365 22.028C98.6205 22.028 99.3405 22.208 99.7965 22.568C100.252 22.904 100.48 23.612 100.48 24.692C100.48 26.276 100.084 27.632 99.2925 28.76C98.5005 29.888 97.4205 30.752 96.0525 31.352C94.7085 31.928 93.1725 32.216 91.4445 32.216Z" stroke="black" stroke-width="2" mask="url(#path-1-outside-1_402_314)"/>
<path d="M110.507 32.36C109.043 32.36 107.687 32.012 106.439 31.316C105.215 30.596 104.219 29.66 103.451 28.508C102.707 27.332 102.335 26.072 102.335 24.728V22.208C102.335 20.864 102.695 19.616 103.415 18.464C104.159 17.312 105.155 16.388 106.403 15.692C107.651 14.996 109.019 14.648 110.507 14.648C111.971 14.648 113.327 14.996 114.575 15.692C115.823 16.364 116.819 17.276 117.563 18.428C118.331 19.556 118.715 20.816 118.715 22.208V24.728C118.715 26.048 118.331 27.296 117.563 28.472C116.819 29.624 115.823 30.56 114.575 31.28C113.327 32 111.971 32.36 110.507 32.36ZM110.507 27.5C110.987 27.5 111.419 27.368 111.803 27.104C112.211 26.84 112.535 26.504 112.775 26.096C113.015 25.664 113.135 25.208 113.135 24.728V22.208C113.135 21.752 113.015 21.32 112.775 20.912C112.535 20.504 112.211 20.168 111.803 19.904C111.419 19.64 110.987 19.508 110.507 19.508C110.027 19.508 109.583 19.64 109.175 19.904C108.791 20.168 108.479 20.504 108.239 20.912C108.023 21.32 107.915 21.752 107.915 22.208V24.728C107.915 25.208 108.023 25.664 108.239 26.096C108.479 26.504 108.791 26.84 109.175 27.104C109.583 27.368 110.027 27.5 110.507 27.5Z" stroke="black" stroke-width="2" mask="url(#path-1-outside-1_402_314)"/>
<path d="M126.952 32.36C125.848 32.36 124.816 32 123.856 31.28C122.896 30.56 122.128 29.624 121.552 28.472C120.976 27.296 120.688 26.048 120.688 24.728V22.208C120.688 20.816 120.976 19.556 121.552 18.428C122.128 17.276 122.896 16.364 123.856 15.692C124.816 14.996 125.884 14.648 127.06 14.648C128.164 14.648 129.1 14.936 129.868 15.512C130.66 16.064 131.248 16.688 131.632 17.384V6.76402C131.632 6.26002 131.908 5.85202 132.46 5.54002C133.012 5.22802 133.684 5.07202 134.476 5.07202C135.268 5.07202 135.916 5.22802 136.42 5.54002C136.948 5.85202 137.212 6.26002 137.212 6.76402V30.272C137.212 30.704 136.948 31.1 136.42 31.46C135.916 31.82 135.268 32 134.476 32C133.804 32 133.216 31.82 132.712 31.46C132.232 31.1 131.992 30.704 131.992 30.272V29.48C131.632 30.224 130.984 30.896 130.048 31.496C129.136 32.072 128.104 32.36 126.952 32.36ZM128.86 27.5C129.388 27.5 129.856 27.356 130.264 27.068C130.672 26.756 130.996 26.42 131.236 26.06C131.5 25.676 131.632 25.388 131.632 25.196V22.208C131.632 21.632 131.488 21.152 131.2 20.768C130.936 20.36 130.588 20.048 130.156 19.832C129.748 19.616 129.328 19.508 128.896 19.508C128.416 19.508 127.972 19.64 127.564 19.904C127.156 20.168 126.832 20.504 126.592 20.912C126.376 21.32 126.268 21.752 126.268 22.208V24.728C126.268 25.184 126.376 25.628 126.592 26.06C126.832 26.492 127.144 26.84 127.528 27.104C127.936 27.368 128.38 27.5 128.86 27.5Z" stroke="black" stroke-width="2" mask="url(#path-1-outside-1_402_314)"/>
<path d="M143.267 11.552C142.451 11.552 141.755 11.288 141.179 10.76C140.603 10.232 140.315 9.63202 140.315 8.96002C140.315 8.26402 140.603 7.66402 141.179 7.16002C141.755 6.65602 142.451 6.40402 143.267 6.40402C144.083 6.40402 144.767 6.65602 145.319 7.16002C145.895 7.66402 146.183 8.26402 146.183 8.96002C146.183 9.63202 145.895 10.232 145.319 10.76C144.767 11.288 144.083 11.552 143.267 11.552ZM143.267 32C142.451 32 141.779 31.82 141.251 31.46C140.747 31.1 140.495 30.704 140.495 30.272V16.556C140.495 16.052 140.747 15.644 141.251 15.332C141.779 15.02 142.451 14.864 143.267 14.864C144.035 14.864 144.695 15.02 145.247 15.332C145.799 15.644 146.075 16.052 146.075 16.556V30.272C146.075 30.704 145.799 31.1 145.247 31.46C144.695 31.82 144.035 32 143.267 32Z" stroke="black" stroke-width="2" mask="url(#path-1-outside-1_402_314)"/>
<path d="M152.056 32C151.24 32 150.568 31.82 150.04 31.46C149.536 31.1 149.284 30.704 149.284 30.272V16.556C149.284 16.052 149.536 15.644 150.04 15.332C150.568 15.02 151.24 14.864 152.056 14.864C152.728 14.864 153.304 15.02 153.784 15.332C154.264 15.644 154.504 16.052 154.504 16.556V17.384C154.84 16.688 155.428 16.064 156.268 15.512C157.108 14.936 158.128 14.648 159.328 14.648C160.432 14.648 161.44 14.996 162.352 15.692C163.288 16.364 164.032 17.276 164.584 18.428C165.16 19.556 165.448 20.816 165.448 22.208V30.272C165.448 30.848 165.148 31.28 164.548 31.568C163.972 31.856 163.336 32 162.64 32C161.992 32 161.368 31.856 160.768 31.568C160.168 31.28 159.868 30.848 159.868 30.272V22.208C159.868 21.752 159.748 21.32 159.508 20.912C159.292 20.504 158.98 20.168 158.572 19.904C158.188 19.64 157.756 19.508 157.276 19.508C156.892 19.508 156.508 19.616 156.124 19.832C155.764 20.048 155.464 20.36 155.224 20.768C154.984 21.152 154.864 21.632 154.864 22.208V30.272C154.864 30.704 154.588 31.1 154.036 31.46C153.484 31.82 152.824 32 152.056 32Z" stroke="black" stroke-width="2" mask="url(#path-1-outside-1_402_314)"/>
<path d="M175.535 39.812C174.119 39.812 172.775 39.608 171.503 39.2C170.255 38.792 169.247 38.192 168.479 37.4C167.711 36.632 167.327 35.696 167.327 34.592C167.327 33.728 167.555 32.984 168.011 32.36C168.467 31.736 169.043 31.232 169.739 30.848C169.355 30.608 169.043 30.308 168.803 29.948C168.563 29.588 168.443 29.144 168.443 28.616C168.443 27.944 168.611 27.392 168.947 26.96C169.307 26.504 169.751 26.084 170.279 25.7C169.535 25.148 168.959 24.488 168.551 23.72C168.143 22.928 167.939 22.064 167.939 21.128V20.588C167.939 19.412 168.239 18.38 168.839 17.492C169.463 16.604 170.327 15.908 171.431 15.404C172.559 14.9 173.855 14.648 175.319 14.648C176.087 14.648 176.819 14.732 177.515 14.9C178.211 15.044 178.835 15.248 179.387 15.512C179.819 14.456 180.191 13.772 180.503 13.46C180.815 13.148 181.127 12.992 181.439 12.992C182.111 12.992 182.627 13.184 182.987 13.568C183.371 13.952 183.563 14.312 183.563 14.648C183.563 14.84 183.515 15.032 183.419 15.224C183.323 15.392 183.179 15.56 182.987 15.728C182.771 15.92 182.519 16.124 182.231 16.34C181.967 16.532 181.703 16.76 181.439 17.024C181.895 17.504 182.231 18.044 182.447 18.644C182.687 19.244 182.807 19.892 182.807 20.588V21.128C182.807 22.28 182.483 23.312 181.835 24.224C181.211 25.112 180.335 25.82 179.207 26.348C178.079 26.876 176.783 27.14 175.319 27.14C174.527 27.14 173.807 27.068 173.159 26.924C173.111 27.02 173.075 27.104 173.051 27.176C173.027 27.248 173.015 27.32 173.015 27.392C173.015 27.728 173.267 27.968 173.771 28.112C174.299 28.256 174.959 28.376 175.751 28.472C176.567 28.568 177.431 28.7 178.343 28.868C179.255 29.036 180.107 29.3 180.899 29.66C181.715 30.02 182.375 30.548 182.879 31.244C183.407 31.916 183.671 32.816 183.671 33.944C183.671 35.36 183.263 36.5 182.447 37.364C181.655 38.228 180.635 38.852 179.387 39.236C178.163 39.62 176.879 39.812 175.535 39.812ZM175.427 36.284C176.147 36.284 176.795 36.08 177.371 35.672C177.971 35.288 178.271 34.76 178.271 34.088C178.271 33.68 178.151 33.344 177.911 33.08C177.695 32.816 177.383 32.6 176.975 32.432C176.591 32.288 176.135 32.168 175.607 32.072C175.103 32 174.575 31.928 174.023 31.856C173.543 32.096 173.183 32.408 172.943 32.792C172.703 33.176 172.583 33.584 172.583 34.016C172.583 34.76 172.871 35.324 173.447 35.708C174.047 36.092 174.707 36.284 175.427 36.284ZM175.391 23.9C176.015 23.9 176.507 23.648 176.867 23.144C177.227 22.616 177.407 21.944 177.407 21.128V20.588C177.407 19.844 177.227 19.208 176.867 18.68C176.531 18.152 176.027 17.888 175.355 17.888C174.707 17.888 174.203 18.152 173.843 18.68C173.507 19.208 173.339 19.844 173.339 20.588V21.092C173.339 21.884 173.507 22.556 173.843 23.108C174.203 23.636 174.719 23.9 175.391 23.9Z" stroke="black" stroke-width="2" mask="url(#path-1-outside-1_402_314)"/>
<path d="M194.382 32.216C192.822 32.216 191.382 31.94 190.062 31.388C188.742 30.836 187.686 29.936 186.894 28.688C186.126 27.44 185.742 25.784 185.742 23.72V14.18C185.742 12.116 186.126 10.46 186.894 9.21202C187.686 7.96402 188.742 7.06402 190.062 6.51202C191.382 5.96002 192.822 5.68402 194.382 5.68402C196.11 5.68402 197.646 5.97202 198.99 6.54802C200.358 7.10002 201.438 7.90402 202.23 8.96002C203.022 10.016 203.418 11.312 203.418 12.848C203.418 13.928 203.19 14.648 202.734 15.008C202.278 15.344 201.57 15.512 200.61 15.512C199.866 15.512 199.218 15.392 198.666 15.152C198.138 14.912 197.85 14.468 197.802 13.82C197.802 13.58 197.766 13.28 197.694 12.92C197.646 12.56 197.526 12.2 197.334 11.84C197.142 11.48 196.83 11.18 196.398 10.94C195.966 10.7 195.366 10.58 194.598 10.58C193.566 10.58 192.762 10.88 192.186 11.48C191.634 12.056 191.358 12.956 191.358 14.18V23.72C191.358 24.944 191.646 25.856 192.222 26.456C192.798 27.032 193.602 27.32 194.634 27.32C195.354 27.32 195.918 27.2 196.326 26.96C196.758 26.72 197.07 26.42 197.262 26.06C197.454 25.676 197.586 25.28 197.658 24.872C197.73 24.464 197.778 24.08 197.802 23.72C197.85 23.048 198.138 22.604 198.666 22.388C199.218 22.148 199.854 22.028 200.574 22.028C201.558 22.028 202.278 22.208 202.734 22.568C203.19 22.904 203.418 23.612 203.418 24.692C203.418 26.276 203.022 27.632 202.23 28.76C201.438 29.888 200.358 30.752 198.99 31.352C197.646 31.928 196.11 32.216 194.382 32.216Z" stroke="black" stroke-width="2" mask="url(#path-1-outside-1_402_314)"/>
<path d="M209.017 32C208.201 32 207.529 31.82 207.001 31.46C206.497 31.1 206.245 30.704 206.245 30.272V6.76402C206.245 6.26002 206.497 5.85202 207.001 5.54002C207.529 5.22802 208.201 5.07202 209.017 5.07202C209.785 5.07202 210.445 5.22802 210.997 5.54002C211.549 5.85202 211.825 6.26002 211.825 6.76402V30.272C211.825 30.704 211.549 31.1 210.997 31.46C210.445 31.82 209.785 32 209.017 32Z" stroke="black" stroke-width="2" mask="url(#path-1-outside-1_402_314)"/>
<path d="M223.406 32.36C221.918 32.36 220.55 32.012 219.302 31.316C218.054 30.596 217.058 29.66 216.314 28.508C215.57 27.356 215.198 26.12 215.198 24.8V16.592C215.198 16.16 215.474 15.764 216.026 15.404C216.578 15.044 217.238 14.864 218.006 14.864C218.75 14.864 219.398 15.044 219.95 15.404C220.502 15.764 220.778 16.16 220.778 16.592V24.8C220.778 25.256 220.898 25.688 221.138 26.096C221.378 26.504 221.69 26.84 222.074 27.104C222.482 27.368 222.926 27.5 223.406 27.5C223.886 27.5 224.318 27.368 224.702 27.104C225.11 26.84 225.422 26.504 225.638 26.096C225.878 25.688 225.998 25.256 225.998 24.8V16.556C225.998 16.1 226.274 15.704 226.826 15.368C227.402 15.032 228.062 14.864 228.806 14.864C229.622 14.864 230.282 15.032 230.786 15.368C231.314 15.704 231.578 16.1 231.578 16.556V24.8C231.578 26.144 231.206 27.392 230.462 28.544C229.718 29.696 228.722 30.62 227.474 31.316C226.25 32.012 224.894 32.36 223.406 32.36Z" stroke="black" stroke-width="2" mask="url(#path-1-outside-1_402_314)"/>
<path d="M244.939 32.36C243.787 32.36 242.743 32.072 241.807 31.496C240.895 30.896 240.259 30.224 239.899 29.48V30.272C239.899 30.704 239.659 31.1 239.179 31.46C238.699 31.82 238.111 32 237.415 32C236.623 32 235.963 31.82 235.435 31.46C234.931 31.1 234.679 30.704 234.679 30.272V6.76402C234.679 6.26002 234.931 5.85202 235.435 5.54002C235.963 5.22802 236.623 5.07202 237.415 5.07202C238.207 5.07202 238.879 5.22802 239.431 5.54002C239.983 5.85202 240.259 6.26002 240.259 6.76402V17.384C240.643 16.688 241.219 16.064 241.987 15.512C242.779 14.936 243.727 14.648 244.831 14.648C246.007 14.648 247.075 14.996 248.035 15.692C248.995 16.364 249.763 17.276 250.339 18.428C250.915 19.556 251.203 20.816 251.203 22.208V24.728C251.203 26.048 250.915 27.296 250.339 28.472C249.763 29.624 248.995 30.56 248.035 31.28C247.099 32 246.067 32.36 244.939 32.36ZM243.031 27.5C243.511 27.5 243.943 27.368 244.327 27.104C244.735 26.84 245.047 26.492 245.263 26.06C245.503 25.628 245.623 25.184 245.623 24.728V22.208C245.623 21.752 245.503 21.32 245.263 20.912C245.047 20.504 244.735 20.168 244.327 19.904C243.943 19.64 243.499 19.508 242.995 19.508C242.563 19.508 242.131 19.616 241.699 19.832C241.291 20.048 240.943 20.36 240.655 20.768C240.391 21.152 240.259 21.632 240.259 22.208V25.196C240.259 25.388 240.379 25.676 240.619 26.06C240.883 26.42 241.219 26.756 241.627 27.068C242.059 27.356 242.527 27.5 243.031 27.5Z" stroke="black" stroke-width="2" mask="url(#path-1-outside-1_402_314)"/>
</g>
<defs>
<filter id="filter0_d_402_314" x="0.144043" y="0.0720215" width="256.059" height="44.74" filterUnits="userSpaceOnUse" color-interpolation-filters="sRGB">
<feFlood flood-opacity="0" result="BackgroundImageFix"/>
<feColorMatrix in="SourceAlpha" type="matrix" values="0 0 0 0 0 0 0 0 0 0 0 0 0 0 0 0 0 0 127 0" result="hardAlpha"/>
<feOffset/>
<feGaussianBlur stdDeviation="2"/>
<feComposite in2="hardAlpha" operator="out"/>
<feColorMatrix type="matrix" values="0 0 0 0 0 0 0 0 0 0 0 0 0 0 0 0 0 0 0.25 0"/>
<feBlend mode="normal" in2="BackgroundImageFix" result="effect1_dropShadow_402_314"/>
<feBlend mode="normal" in="SourceGraphic" in2="effect1_dropShadow_402_314" result="shape"/>
</filter>
<linearGradient id="paint0_linear_402_314" x1="5" y1="22" x2="251" y2="22" gradientUnits="userSpaceOnUse">
<stop stop-color="#EB93BF"/>
<stop offset="1" stop-color="#63C9B4"/>
</linearGradient>
<linearGradient id="paint1_linear_402_314" x1="5" y1="22" x2="251" y2="22" gradientUnits="userSpaceOnUse">
<stop stop-color="#EB93BF"/>
<stop offset="1" stop-color="#63C9B4"/>
</linearGradient>
<linearGradient id="paint2_linear_402_314" x1="5" y1="22" x2="251" y2="22" gradientUnits="userSpaceOnUse">
<stop stop-color="#EB93BF"/>
<stop offset="1" stop-color="#63C9B4"/>
</linearGradient>
<linearGradient id="paint3_linear_402_314" x1="5" y1="22" x2="251" y2="22" gradientUnits="userSpaceOnUse">
<stop stop-color="#EB93BF"/>
<stop offset="1" stop-color="#63C9B4"/>
</linearGradient>
<linearGradient id="paint4_linear_402_314" x1="5" y1="22" x2="251" y2="22" gradientUnits="userSpaceOnUse">
<stop stop-color="#EB93BF"/>
<stop offset="1" stop-color="#63C9B4"/>
</linearGradient>
<linearGradient id="paint5_linear_402_314" x1="5" y1="22" x2="251" y2="22" gradientUnits="userSpaceOnUse">
<stop stop-color="#EB93BF"/>
<stop offset="1" stop-color="#63C9B4"/>
</linearGradient>
<linearGradient id="paint6_linear_402_314" x1="5" y1="22" x2="251" y2="22" gradientUnits="userSpaceOnUse">
<stop stop-color="#EB93BF"/>
<stop offset="1" stop-color="#63C9B4"/>
</linearGradient>
<linearGradient id="paint7_linear_402_314" x1="5" y1="22" x2="251" y2="22" gradientUnits="userSpaceOnUse">
<stop stop-color="#EB93BF"/>
<stop offset="1" stop-color="#63C9B4"/>
</linearGradient>
<linearGradient id="paint8_linear_402_314" x1="5" y1="22" x2="251" y2="22" gradientUnits="userSpaceOnUse">
<stop stop-color="#EB93BF"/>
<stop offset="1" stop-color="#63C9B4"/>
</linearGradient>
<linearGradient id="paint9_linear_402_314" x1="5" y1="22" x2="251" y2="22" gradientUnits="userSpaceOnUse">
<stop stop-color="#EB93BF"/>
<stop offset="1" stop-color="#63C9B4"/>
</linearGradient>
<linearGradient id="paint10_linear_402_314" x1="5" y1="22" x2="251" y2="22" gradientUnits="userSpaceOnUse">
<stop stop-color="#EB93BF"/>
<stop offset="1" stop-color="#63C9B4"/>
</linearGradient>
<linearGradient id="paint11_linear_402_314" x1="5" y1="22" x2="251" y2="22" gradientUnits="userSpaceOnUse">
<stop stop-color="#EB93BF"/>
<stop offset="1" stop-color="#63C9B4"/>
</linearGradient>
<linearGradient id="paint12_linear_402_314" x1="5" y1="22" x2="251" y2="22" gradientUnits="userSpaceOnUse">
<stop stop-color="#EB93BF"/>
<stop offset="1" stop-color="#63C9B4"/>
</linearGradient>
<linearGradient id="paint13_linear_402_314" x1="5" y1="22" x2="251" y2="22" gradientUnits="userSpaceOnUse">
<stop stop-color="#EB93BF"/>
<stop offset="1" stop-color="#63C9B4"/>
</linearGradient>
<linearGradient id="paint14_linear_402_314" x1="5" y1="22" x2="251" y2="22" gradientUnits="userSpaceOnUse">
<stop stop-color="#EB93BF"/>
<stop offset="1" stop-color="#63C9B4"/>
</linearGradient>
</defs>
</svg>
